<svg width="800" height="405" viewBox="0 0 800 405" fill="none" xmlns="http://www.w3.org/2000/svg">
<path d="M715.5 136.151C381.06 129.125 494.61 369 234.479 369V136.151H2V369H234.479L799 369V136.151L715.5 136.151Z" fill="url(#paint0_linear)"/>
<path d="M2 367C0.89543 367 0 367.895 0 369C0 370.105 0.89543 371 2 371V367ZM799.414 370.414C800.195 369.633 800.195 368.367 799.414 367.586L786.686 354.858C785.905 354.077 784.639 354.077 783.858 354.858C783.077 355.639 783.077 356.905 783.858 357.686L795.172 369L783.858 380.314C783.077 381.095 783.077 382.361 783.858 383.142C784.639 383.923 785.905 383.923 786.686 383.142L799.414 370.414ZM2 371H798V367H2V371Z" fill="black"/>
<line x1="235" y1="369" x2="235" y2="104" stroke="black" stroke-opacity="0.46" stroke-width="2" stroke-dasharray="10 10"/>
<line x1="718" y1="369" x2="718" y2="104" stroke="black" stroke-opacity="0.46" stroke-width="2" stroke-dasharray="10 10"/>
<path d="M388.146 38L393.674 23.9961H396.447L401.975 38H399.387L398.127 34.7773H391.955L390.734 38H388.146ZM392.795 32.5801H397.268L395.012 26.7598L392.795 32.5801ZM403.547 38V28.3027H405.812V29.1621C406.6 28.3743 407.541 27.9805 408.635 27.9805C409.26 27.9805 409.839 28.1139 410.373 28.3809C410.907 28.6478 411.35 29.0612 411.701 29.6211C412.053 30.1745 412.229 30.8223 412.229 31.5645V38H409.934V32.1406C409.934 31.5221 409.748 31.0371 409.377 30.6855C409.012 30.321 408.55 30.1387 407.99 30.1387C407.144 30.1387 406.431 30.5195 405.852 31.2812V38H403.547ZM414.416 24.6602C414.416 24.2174 414.562 23.8496 414.855 23.5566C415.148 23.2637 415.51 23.1172 415.939 23.1172C416.389 23.1172 416.76 23.2637 417.053 23.5566C417.352 23.8431 417.502 24.2109 417.502 24.6602C417.502 25.0964 417.352 25.4577 417.053 25.7441C416.76 26.0241 416.389 26.1641 415.939 26.1641C415.503 26.1641 415.139 26.0241 414.846 25.7441C414.559 25.4577 414.416 25.0964 414.416 24.6602ZM414.816 38V28.3027H417.121V38H414.816ZM419.875 38V28.3027H422.141V29.1621C422.857 28.3743 423.775 27.9805 424.895 27.9805C425.461 27.9805 425.985 28.0977 426.467 28.332C426.949 28.5664 427.346 28.9082 427.658 29.3574C428.518 28.4395 429.585 27.9805 430.861 27.9805C431.486 27.9805 432.059 28.1139 432.58 28.3809C433.101 28.6478 433.531 29.0579 433.869 29.6113C434.208 30.1582 434.377 30.8092 434.377 31.5645V38H432.082V32.1406C432.082 31.5156 431.923 31.0273 431.604 30.6758C431.285 30.3177 430.855 30.1387 430.314 30.1387C429.507 30.1387 428.82 30.5 428.254 31.2227C428.273 31.3398 428.283 31.4538 428.283 31.5645V38H425.998V32.1406C425.998 31.5156 425.842 31.0273 425.529 30.6758C425.217 30.3177 424.794 30.1387 424.26 30.1387C423.452 30.1387 422.759 30.5195 422.18 31.2812V38H419.875ZM436.438 34.9434C436.464 33.9668 436.831 33.2051 437.541 32.6582C438.257 32.1048 439.117 31.8314 440.119 31.8379C441.109 31.8379 441.968 32.0397 442.697 32.4434V31.6035C442.697 31.1478 442.525 30.7702 442.18 30.4707C441.835 30.1712 441.327 30.0215 440.656 30.0215C439.458 30.0215 438.238 30.3958 436.994 31.1445V28.8789C438.199 28.2799 439.468 27.9805 440.803 27.9805C441.76 27.9805 442.548 28.1432 443.166 28.4688C443.785 28.7943 444.243 29.224 444.543 29.7578C444.849 30.2852 445.002 30.8646 445.002 31.4961V38H442.814V37.2773C442.085 37.9609 441.167 38.3027 440.061 38.3027C438.986 38.3027 438.114 38.0065 437.443 37.4141C436.773 36.8086 436.438 35.985 436.438 34.9434ZM438.762 34.9043C438.762 35.3796 438.934 35.7572 439.279 36.0371C439.631 36.3171 440.07 36.457 440.598 36.457C441.04 36.457 441.447 36.3724 441.818 36.2031C442.202 36.0339 442.495 35.8451 442.697 35.6367V34.1621C442.489 33.9863 442.193 33.8333 441.809 33.7031C441.431 33.5664 441.027 33.498 440.598 33.498C440.083 33.498 439.647 33.625 439.289 33.8789C438.938 34.1328 438.762 34.4746 438.762 34.9043ZM446.418 30.2754V28.3027H448.215V25.5586L450.393 24.5625V28.3027H452.678V30.2754H450.393V34.9238C450.393 35.7897 450.868 36.2227 451.818 36.2227C452.15 36.2227 452.437 36.1803 452.678 36.0957V38.0781C452.255 38.2279 451.734 38.3027 451.115 38.3027C450.21 38.3027 449.481 38.0586 448.928 37.5703C448.374 37.0755 448.098 36.3464 448.098 35.3828V30.2754H446.418ZM454.416 24.6602C454.416 24.2174 454.562 23.8496 454.855 23.5566C455.148 23.2637 455.51 23.1172 455.939 23.1172C456.389 23.1172 456.76 23.2637 457.053 23.5566C457.352 23.8431 457.502 24.2109 457.502 24.6602C457.502 25.0964 457.352 25.4577 457.053 25.7441C456.76 26.0241 456.389 26.1641 455.939 26.1641C455.503 26.1641 455.139 26.0241 454.846 25.7441C454.559 25.4577 454.416 25.0964 454.416 24.6602ZM454.816 38V28.3027H457.121V38H454.816ZM459.123 33.1367C459.13 31.6654 459.615 30.4414 460.578 29.4648C461.542 28.4883 462.788 27.9935 464.318 27.9805C465.822 27.9805 467.062 28.472 468.039 29.4551C469.016 30.4316 469.504 31.6589 469.504 33.1367C469.504 34.6081 469.016 35.8385 468.039 36.8281C467.076 37.8112 465.835 38.3027 464.318 38.3027C462.808 38.3027 461.564 37.8112 460.588 36.8281C459.611 35.8385 459.123 34.6081 459.123 33.1367ZM464.318 36.1445C465.1 36.1445 465.757 35.8743 466.291 35.334C466.831 34.7936 467.102 34.0612 467.102 33.1367C467.102 32.2057 466.831 31.4798 466.291 30.959C465.757 30.4251 465.1 30.1582 464.318 30.1582C463.531 30.1582 462.867 30.4251 462.326 30.959C461.786 31.4798 461.516 32.2057 461.516 33.1367C461.516 34.0612 461.786 34.7936 462.326 35.334C462.867 35.8743 463.531 36.1445 464.318 36.1445ZM471.652 38V28.3027H473.918V29.1621C474.706 28.3743 475.646 27.9805 476.74 27.9805C477.365 27.9805 477.945 28.1139 478.479 28.3809C479.012 28.6478 479.455 29.0612 479.807 29.6211C480.158 30.1745 480.334 30.8223 480.334 31.5645V38H478.039V32.1406C478.039 31.5221 477.854 31.0371 477.482 30.6855C477.118 30.321 476.656 30.1387 476.096 30.1387C475.249 30.1387 474.536 30.5195 473.957 31.2812V38H471.652ZM487.717 33.1172C487.717 32.1732 487.899 31.3171 488.264 30.5488C488.635 29.7806 489.172 29.1589 489.875 28.6836C490.585 28.2148 491.398 27.9805 492.316 27.9805C493.469 27.9805 494.449 28.3743 495.256 29.1621V23.498H497.551V38H495.256V37.1211C494.442 37.9089 493.462 38.3027 492.316 38.3027C491.398 38.3027 490.585 38.0684 489.875 37.5996C489.172 37.1309 488.635 36.5059 488.264 35.7246C487.899 34.9434 487.717 34.0742 487.717 33.1172ZM490.109 33.1172C490.109 34.0417 490.354 34.7806 490.842 35.334C491.337 35.8743 491.988 36.1445 492.795 36.1445C493.745 36.1445 494.566 35.6953 495.256 34.7969V31.457C494.592 30.5911 493.771 30.1582 492.795 30.1582C491.988 30.1582 491.337 30.4251 490.842 30.959C490.354 31.4863 490.109 32.2057 490.109 33.1172ZM500.207 34.7188V28.3027H502.512V34.1426C502.512 34.7546 502.697 35.2461 503.068 35.6172C503.439 35.9818 503.898 36.1641 504.445 36.1641C505.298 36.1641 506.011 35.7832 506.584 35.0215V28.3027H508.889V38H506.633V37.1406C505.884 37.9154 504.943 38.3027 503.811 38.3027C502.873 38.3027 502.043 38 501.32 37.3945C500.982 37.0951 500.712 36.7174 500.51 36.2617C500.308 35.7995 500.207 35.2852 500.207 34.7188ZM511.594 38V28.3027H513.859V29.8555C514.113 29.263 514.484 28.804 514.973 28.4785C515.461 28.1465 516.014 27.9805 516.633 27.9805C516.919 27.9805 517.154 28.0065 517.336 28.0586V30.4609C516.906 30.4089 516.587 30.3828 516.379 30.3828C515.754 30.3828 515.217 30.5586 514.768 30.9102C514.318 31.2617 514.029 31.6849 513.898 32.1797V38H511.594ZM518.645 34.9434C518.671 33.9668 519.038 33.2051 519.748 32.6582C520.464 32.1048 521.324 31.8314 522.326 31.8379C523.316 31.8379 524.175 32.0397 524.904 32.4434V31.6035C524.904 31.1478 524.732 30.7702 524.387 30.4707C524.042 30.1712 523.534 30.0215 522.863 30.0215C521.665 30.0215 520.445 30.3958 519.201 31.1445V28.8789C520.406 28.2799 521.675 27.9805 523.01 27.9805C523.967 27.9805 524.755 28.1432 525.373 28.4688C525.992 28.7943 526.451 29.224 526.75 29.7578C527.056 30.2852 527.209 30.8646 527.209 31.4961V38H525.021V37.2773C524.292 37.9609 523.374 38.3027 522.268 38.3027C521.193 38.3027 520.321 38.0065 519.65 37.4141C518.98 36.8086 518.645 35.985 518.645 34.9434ZM520.969 34.9043C520.969 35.3796 521.141 35.7572 521.486 36.0371C521.838 36.3171 522.277 36.457 522.805 36.457C523.247 36.457 523.654 36.3724 524.025 36.2031C524.41 36.0339 524.702 35.8451 524.904 35.6367V34.1621C524.696 33.9863 524.4 33.8333 524.016 33.7031C523.638 33.5664 523.234 33.498 522.805 33.498C522.29 33.498 521.854 33.625 521.496 33.8789C521.145 34.1328 520.969 34.4746 520.969 34.9043ZM528.625 30.2754V28.3027H530.422V25.5586L532.6 24.5625V28.3027H534.885V30.2754H532.6V34.9238C532.6 35.7897 533.075 36.2227 534.025 36.2227C534.357 36.2227 534.644 36.1803 534.885 36.0957V38.0781C534.462 38.2279 533.941 38.3027 533.322 38.3027C532.417 38.3027 531.688 38.0586 531.135 37.5703C530.581 37.0755 530.305 36.3464 530.305 35.3828V30.2754H528.625ZM536.623 24.6602C536.623 24.2174 536.77 23.8496 537.062 23.5566C537.355 23.2637 537.717 23.1172 538.146 23.1172C538.596 23.1172 538.967 23.2637 539.26 23.5566C539.559 23.8431 539.709 24.2109 539.709 24.6602C539.709 25.0964 539.559 25.4577 539.26 25.7441C538.967 26.0241 538.596 26.1641 538.146 26.1641C537.71 26.1641 537.346 26.0241 537.053 25.7441C536.766 25.4577 536.623 25.0964 536.623 24.6602ZM537.023 38V28.3027H539.328V38H537.023ZM541.33 33.1367C541.337 31.6654 541.822 30.4414 542.785 29.4648C543.749 28.4883 544.995 27.9935 546.525 27.9805C548.029 27.9805 549.27 28.472 550.246 29.4551C551.223 30.4316 551.711 31.6589 551.711 33.1367C551.711 34.6081 551.223 35.8385 550.246 36.8281C549.283 37.8112 548.042 38.3027 546.525 38.3027C545.015 38.3027 543.771 37.8112 542.795 36.8281C541.818 35.8385 541.33 34.6081 541.33 33.1367ZM546.525 36.1445C547.307 36.1445 547.964 35.8743 548.498 35.334C549.038 34.7936 549.309 34.0612 549.309 33.1367C549.309 32.2057 549.038 31.4798 548.498 30.959C547.964 30.4251 547.307 30.1582 546.525 30.1582C545.738 30.1582 545.074 30.4251 544.533 30.959C543.993 31.4798 543.723 32.2057 543.723 33.1367C543.723 34.0612 543.993 34.7936 544.533 35.334C545.074 35.8743 545.738 36.1445 546.525 36.1445ZM553.859 38V28.3027H556.125V29.1621C556.913 28.3743 557.854 27.9805 558.947 27.9805C559.572 27.9805 560.152 28.1139 560.686 28.3809C561.219 28.6478 561.662 29.0612 562.014 29.6211C562.365 30.1745 562.541 30.8223 562.541 31.5645V38H560.246V32.1406C560.246 31.5221 560.061 31.0371 559.689 30.6855C559.325 30.321 558.863 30.1387 558.303 30.1387C557.456 30.1387 556.743 30.5195 556.164 31.2812V38H553.859Z" fill="black"/>
<path d="M236.069 94.501C236.069 34.001 310.51 34.001 381.367 34.001" stroke="black" stroke-width="3"/>
<path d="M718.713 95C724.388 34 621.378 34 573.415 34" stroke="black" stroke-width="3"/>
<path d="M376.654 388.242V385.996H388.207V388.242H383.646V400H381.215V388.242H376.654ZM389.857 386.66C389.857 386.217 390.004 385.85 390.297 385.557C390.59 385.264 390.951 385.117 391.381 385.117C391.83 385.117 392.201 385.264 392.494 385.557C392.794 385.843 392.943 386.211 392.943 386.66C392.943 387.096 392.794 387.458 392.494 387.744C392.201 388.024 391.83 388.164 391.381 388.164C390.945 388.164 390.58 388.024 390.287 387.744C390.001 387.458 389.857 387.096 389.857 386.66ZM390.258 400V390.303H392.562V400H390.258ZM395.316 400V390.303H397.582V391.162C398.298 390.374 399.216 389.98 400.336 389.98C400.902 389.98 401.426 390.098 401.908 390.332C402.39 390.566 402.787 390.908 403.1 391.357C403.959 390.439 405.027 389.98 406.303 389.98C406.928 389.98 407.501 390.114 408.021 390.381C408.542 390.648 408.972 391.058 409.311 391.611C409.649 392.158 409.818 392.809 409.818 393.564V400H407.523V394.141C407.523 393.516 407.364 393.027 407.045 392.676C406.726 392.318 406.296 392.139 405.756 392.139C404.949 392.139 404.262 392.5 403.695 393.223C403.715 393.34 403.725 393.454 403.725 393.564V400H401.439V394.141C401.439 393.516 401.283 393.027 400.971 392.676C400.658 392.318 400.235 392.139 399.701 392.139C398.894 392.139 398.201 392.52 397.621 393.281V400H395.316ZM411.732 395.098C411.732 394.349 411.859 393.656 412.113 393.018C412.367 392.373 412.715 391.829 413.158 391.387C414.128 390.449 415.271 389.98 416.586 389.98C418.083 389.98 419.255 390.459 420.102 391.416C420.961 392.367 421.391 393.613 421.391 395.156C421.391 395.469 421.378 395.716 421.352 395.898H414.145C414.184 396.608 414.47 397.188 415.004 397.637C415.544 398.079 416.179 398.301 416.908 398.301C417.644 398.301 418.308 398.2 418.9 397.998C419.506 397.79 420.134 397.451 420.785 396.982V399.082C419.646 399.896 418.308 400.303 416.771 400.303C415.84 400.303 415.001 400.111 414.252 399.727C413.503 399.336 412.895 398.74 412.426 397.939C411.964 397.139 411.732 396.191 411.732 395.098ZM414.213 394.18H418.988C418.969 393.542 418.747 393.018 418.324 392.607C417.908 392.191 417.328 391.982 416.586 391.982C415.922 391.982 415.368 392.201 414.926 392.637C414.49 393.073 414.252 393.587 414.213 394.18Z" fill="black"/>
<defs>
<linearGradient id="paint0_linear" x1="10.0862" y1="248.5" x2="798.999" y2="253.097" gradientUnits="userSpaceOnUse">
<stop stop-color="#4D3EF6"/>
<stop offset="0.92558" stop-color="#4D3EF6"/>
<stop offset="1" stop-color="#4D3EF6"/>
</linearGradient>
</defs>
</svg>
