<svg width="800" height="405" viewBox="0 0 800 405" fill="none" xmlns="http://www.w3.org/2000/svg">
<rect x="235" y="391" width="233" height="20" transform="rotate(-180 235 391)" fill="url(#paint0_linear)"/>
<path d="M234.479 369C494.61 369 381.06 129.125 715.5 136.151L799 136.151V369L234.479 369Z" fill="url(#paint1_linear)"/>
<path d="M2 367C0.895431 367 0 367.895 0 369C0 370.105 0.895431 371 2 371V367ZM799.414 370.414C800.195 369.633 800.195 368.367 799.414 367.586L786.686 354.858C785.905 354.077 784.639 354.077 783.858 354.858C783.077 355.639 783.077 356.905 783.858 357.686L795.172 369L783.858 380.314C783.077 381.095 783.077 382.361 783.858 383.142C784.639 383.923 785.905 383.923 786.686 383.142L799.414 370.414ZM2 371H798V367H2V371Z" fill="black"/>
<line x1="235" y1="369" x2="235" y2="104" stroke="black" stroke-opacity="0.46" stroke-width="2" stroke-dasharray="10 10"/>
<line x1="720" y1="369" x2="720" y2="104" stroke="black" stroke-opacity="0.46" stroke-width="2" stroke-dasharray="10 10"/>
<path d="M390.146 38L395.674 23.9961H398.447L403.975 38H401.387L400.127 34.7773H393.955L392.734 38H390.146ZM394.795 32.5801H399.268L397.012 26.7598L394.795 32.5801ZM405.547 38V28.3027H407.812V29.1621C408.6 28.3743 409.541 27.9805 410.635 27.9805C411.26 27.9805 411.839 28.1139 412.373 28.3809C412.907 28.6478 413.35 29.0612 413.701 29.6211C414.053 30.1745 414.229 30.8223 414.229 31.5645V38H411.934V32.1406C411.934 31.5221 411.748 31.0371 411.377 30.6855C411.012 30.321 410.55 30.1387 409.99 30.1387C409.144 30.1387 408.431 30.5195 407.852 31.2812V38H405.547ZM416.416 24.6602C416.416 24.2174 416.562 23.8496 416.855 23.5566C417.148 23.2637 417.51 23.1172 417.939 23.1172C418.389 23.1172 418.76 23.2637 419.053 23.5566C419.352 23.8431 419.502 24.2109 419.502 24.6602C419.502 25.0964 419.352 25.4577 419.053 25.7441C418.76 26.0241 418.389 26.1641 417.939 26.1641C417.503 26.1641 417.139 26.0241 416.846 25.7441C416.559 25.4577 416.416 25.0964 416.416 24.6602ZM416.816 38V28.3027H419.121V38H416.816ZM421.875 38V28.3027H424.141V29.1621C424.857 28.3743 425.775 27.9805 426.895 27.9805C427.461 27.9805 427.985 28.0977 428.467 28.332C428.949 28.5664 429.346 28.9082 429.658 29.3574C430.518 28.4395 431.585 27.9805 432.861 27.9805C433.486 27.9805 434.059 28.1139 434.58 28.3809C435.101 28.6478 435.531 29.0579 435.869 29.6113C436.208 30.1582 436.377 30.8092 436.377 31.5645V38H434.082V32.1406C434.082 31.5156 433.923 31.0273 433.604 30.6758C433.285 30.3177 432.855 30.1387 432.314 30.1387C431.507 30.1387 430.82 30.5 430.254 31.2227C430.273 31.3398 430.283 31.4538 430.283 31.5645V38H427.998V32.1406C427.998 31.5156 427.842 31.0273 427.529 30.6758C427.217 30.3177 426.794 30.1387 426.26 30.1387C425.452 30.1387 424.759 30.5195 424.18 31.2812V38H421.875ZM438.438 34.9434C438.464 33.9668 438.831 33.2051 439.541 32.6582C440.257 32.1048 441.117 31.8314 442.119 31.8379C443.109 31.8379 443.968 32.0397 444.697 32.4434V31.6035C444.697 31.1478 444.525 30.7702 444.18 30.4707C443.835 30.1712 443.327 30.0215 442.656 30.0215C441.458 30.0215 440.238 30.3958 438.994 31.1445V28.8789C440.199 28.2799 441.468 27.9805 442.803 27.9805C443.76 27.9805 444.548 28.1432 445.166 28.4688C445.785 28.7943 446.243 29.224 446.543 29.7578C446.849 30.2852 447.002 30.8646 447.002 31.4961V38H444.814V37.2773C444.085 37.9609 443.167 38.3027 442.061 38.3027C440.986 38.3027 440.114 38.0065 439.443 37.4141C438.773 36.8086 438.438 35.985 438.438 34.9434ZM440.762 34.9043C440.762 35.3796 440.934 35.7572 441.279 36.0371C441.631 36.3171 442.07 36.457 442.598 36.457C443.04 36.457 443.447 36.3724 443.818 36.2031C444.202 36.0339 444.495 35.8451 444.697 35.6367V34.1621C444.489 33.9863 444.193 33.8333 443.809 33.7031C443.431 33.5664 443.027 33.498 442.598 33.498C442.083 33.498 441.647 33.625 441.289 33.8789C440.938 34.1328 440.762 34.4746 440.762 34.9043ZM448.418 30.2754V28.3027H450.215V25.5586L452.393 24.5625V28.3027H454.678V30.2754H452.393V34.9238C452.393 35.7897 452.868 36.2227 453.818 36.2227C454.15 36.2227 454.437 36.1803 454.678 36.0957V38.0781C454.255 38.2279 453.734 38.3027 453.115 38.3027C452.21 38.3027 451.481 38.0586 450.928 37.5703C450.374 37.0755 450.098 36.3464 450.098 35.3828V30.2754H448.418ZM456.416 24.6602C456.416 24.2174 456.562 23.8496 456.855 23.5566C457.148 23.2637 457.51 23.1172 457.939 23.1172C458.389 23.1172 458.76 23.2637 459.053 23.5566C459.352 23.8431 459.502 24.2109 459.502 24.6602C459.502 25.0964 459.352 25.4577 459.053 25.7441C458.76 26.0241 458.389 26.1641 457.939 26.1641C457.503 26.1641 457.139 26.0241 456.846 25.7441C456.559 25.4577 456.416 25.0964 456.416 24.6602ZM456.816 38V28.3027H459.121V38H456.816ZM461.123 33.1367C461.13 31.6654 461.615 30.4414 462.578 29.4648C463.542 28.4883 464.788 27.9935 466.318 27.9805C467.822 27.9805 469.062 28.472 470.039 29.4551C471.016 30.4316 471.504 31.6589 471.504 33.1367C471.504 34.6081 471.016 35.8385 470.039 36.8281C469.076 37.8112 467.835 38.3027 466.318 38.3027C464.808 38.3027 463.564 37.8112 462.588 36.8281C461.611 35.8385 461.123 34.6081 461.123 33.1367ZM466.318 36.1445C467.1 36.1445 467.757 35.8743 468.291 35.334C468.831 34.7936 469.102 34.0612 469.102 33.1367C469.102 32.2057 468.831 31.4798 468.291 30.959C467.757 30.4251 467.1 30.1582 466.318 30.1582C465.531 30.1582 464.867 30.4251 464.326 30.959C463.786 31.4798 463.516 32.2057 463.516 33.1367C463.516 34.0612 463.786 34.7936 464.326 35.334C464.867 35.8743 465.531 36.1445 466.318 36.1445ZM473.652 38V28.3027H475.918V29.1621C476.706 28.3743 477.646 27.9805 478.74 27.9805C479.365 27.9805 479.945 28.1139 480.479 28.3809C481.012 28.6478 481.455 29.0612 481.807 29.6211C482.158 30.1745 482.334 30.8223 482.334 31.5645V38H480.039V32.1406C480.039 31.5221 479.854 31.0371 479.482 30.6855C479.118 30.321 478.656 30.1387 478.096 30.1387C477.249 30.1387 476.536 30.5195 475.957 31.2812V38H473.652ZM489.717 33.1172C489.717 32.1732 489.899 31.3171 490.264 30.5488C490.635 29.7806 491.172 29.1589 491.875 28.6836C492.585 28.2148 493.398 27.9805 494.316 27.9805C495.469 27.9805 496.449 28.3743 497.256 29.1621V23.498H499.551V38H497.256V37.1211C496.442 37.9089 495.462 38.3027 494.316 38.3027C493.398 38.3027 492.585 38.0684 491.875 37.5996C491.172 37.1309 490.635 36.5059 490.264 35.7246C489.899 34.9434 489.717 34.0742 489.717 33.1172ZM492.109 33.1172C492.109 34.0417 492.354 34.7806 492.842 35.334C493.337 35.8743 493.988 36.1445 494.795 36.1445C495.745 36.1445 496.566 35.6953 497.256 34.7969V31.457C496.592 30.5911 495.771 30.1582 494.795 30.1582C493.988 30.1582 493.337 30.4251 492.842 30.959C492.354 31.4863 492.109 32.2057 492.109 33.1172ZM502.207 34.7188V28.3027H504.512V34.1426C504.512 34.7546 504.697 35.2461 505.068 35.6172C505.439 35.9818 505.898 36.1641 506.445 36.1641C507.298 36.1641 508.011 35.7832 508.584 35.0215V28.3027H510.889V38H508.633V37.1406C507.884 37.9154 506.943 38.3027 505.811 38.3027C504.873 38.3027 504.043 38 503.32 37.3945C502.982 37.0951 502.712 36.7174 502.51 36.2617C502.308 35.7995 502.207 35.2852 502.207 34.7188ZM513.594 38V28.3027H515.859V29.8555C516.113 29.263 516.484 28.804 516.973 28.4785C517.461 28.1465 518.014 27.9805 518.633 27.9805C518.919 27.9805 519.154 28.0065 519.336 28.0586V30.4609C518.906 30.4089 518.587 30.3828 518.379 30.3828C517.754 30.3828 517.217 30.5586 516.768 30.9102C516.318 31.2617 516.029 31.6849 515.898 32.1797V38H513.594ZM520.645 34.9434C520.671 33.9668 521.038 33.2051 521.748 32.6582C522.464 32.1048 523.324 31.8314 524.326 31.8379C525.316 31.8379 526.175 32.0397 526.904 32.4434V31.6035C526.904 31.1478 526.732 30.7702 526.387 30.4707C526.042 30.1712 525.534 30.0215 524.863 30.0215C523.665 30.0215 522.445 30.3958 521.201 31.1445V28.8789C522.406 28.2799 523.675 27.9805 525.01 27.9805C525.967 27.9805 526.755 28.1432 527.373 28.4688C527.992 28.7943 528.451 29.224 528.75 29.7578C529.056 30.2852 529.209 30.8646 529.209 31.4961V38H527.021V37.2773C526.292 37.9609 525.374 38.3027 524.268 38.3027C523.193 38.3027 522.321 38.0065 521.65 37.4141C520.98 36.8086 520.645 35.985 520.645 34.9434ZM522.969 34.9043C522.969 35.3796 523.141 35.7572 523.486 36.0371C523.838 36.3171 524.277 36.457 524.805 36.457C525.247 36.457 525.654 36.3724 526.025 36.2031C526.41 36.0339 526.702 35.8451 526.904 35.6367V34.1621C526.696 33.9863 526.4 33.8333 526.016 33.7031C525.638 33.5664 525.234 33.498 524.805 33.498C524.29 33.498 523.854 33.625 523.496 33.8789C523.145 34.1328 522.969 34.4746 522.969 34.9043ZM530.625 30.2754V28.3027H532.422V25.5586L534.6 24.5625V28.3027H536.885V30.2754H534.6V34.9238C534.6 35.7897 535.075 36.2227 536.025 36.2227C536.357 36.2227 536.644 36.1803 536.885 36.0957V38.0781C536.462 38.2279 535.941 38.3027 535.322 38.3027C534.417 38.3027 533.688 38.0586 533.135 37.5703C532.581 37.0755 532.305 36.3464 532.305 35.3828V30.2754H530.625ZM538.623 24.6602C538.623 24.2174 538.77 23.8496 539.062 23.5566C539.355 23.2637 539.717 23.1172 540.146 23.1172C540.596 23.1172 540.967 23.2637 541.26 23.5566C541.559 23.8431 541.709 24.2109 541.709 24.6602C541.709 25.0964 541.559 25.4577 541.26 25.7441C540.967 26.0241 540.596 26.1641 540.146 26.1641C539.71 26.1641 539.346 26.0241 539.053 25.7441C538.766 25.4577 538.623 25.0964 538.623 24.6602ZM539.023 38V28.3027H541.328V38H539.023ZM543.33 33.1367C543.337 31.6654 543.822 30.4414 544.785 29.4648C545.749 28.4883 546.995 27.9935 548.525 27.9805C550.029 27.9805 551.27 28.472 552.246 29.4551C553.223 30.4316 553.711 31.6589 553.711 33.1367C553.711 34.6081 553.223 35.8385 552.246 36.8281C551.283 37.8112 550.042 38.3027 548.525 38.3027C547.015 38.3027 545.771 37.8112 544.795 36.8281C543.818 35.8385 543.33 34.6081 543.33 33.1367ZM548.525 36.1445C549.307 36.1445 549.964 35.8743 550.498 35.334C551.038 34.7936 551.309 34.0612 551.309 33.1367C551.309 32.2057 551.038 31.4798 550.498 30.959C549.964 30.4251 549.307 30.1582 548.525 30.1582C547.738 30.1582 547.074 30.4251 546.533 30.959C545.993 31.4798 545.723 32.2057 545.723 33.1367C545.723 34.0612 545.993 34.7936 546.533 35.334C547.074 35.8743 547.738 36.1445 548.525 36.1445ZM555.859 38V28.3027H558.125V29.1621C558.913 28.3743 559.854 27.9805 560.947 27.9805C561.572 27.9805 562.152 28.1139 562.686 28.3809C563.219 28.6478 563.662 29.0612 564.014 29.6211C564.365 30.1745 564.541 30.8223 564.541 31.5645V38H562.246V32.1406C562.246 31.5221 562.061 31.0371 561.689 30.6855C561.325 30.321 560.863 30.1387 560.303 30.1387C559.456 30.1387 558.743 30.5195 558.164 31.2812V38H555.859Z" fill="black"/>
<path d="M236.068 94.501C236.068 34.001 310.818 34.001 381.968 34.001" stroke="black" stroke-width="3"/>
<path d="M720.712 95C726.411 34 622.975 34 574.812 34" stroke="black" stroke-width="3"/>
<path d="M376.654 388.242V385.996H388.207V388.242H383.646V400H381.215V388.242H376.654ZM389.857 386.66C389.857 386.217 390.004 385.85 390.297 385.557C390.59 385.264 390.951 385.117 391.381 385.117C391.83 385.117 392.201 385.264 392.494 385.557C392.794 385.843 392.943 386.211 392.943 386.66C392.943 387.096 392.794 387.458 392.494 387.744C392.201 388.024 391.83 388.164 391.381 388.164C390.945 388.164 390.58 388.024 390.287 387.744C390.001 387.458 389.857 387.096 389.857 386.66ZM390.258 400V390.303H392.562V400H390.258ZM395.316 400V390.303H397.582V391.162C398.298 390.374 399.216 389.98 400.336 389.98C400.902 389.98 401.426 390.098 401.908 390.332C402.39 390.566 402.787 390.908 403.1 391.357C403.959 390.439 405.027 389.98 406.303 389.98C406.928 389.98 407.501 390.114 408.021 390.381C408.542 390.648 408.972 391.058 409.311 391.611C409.649 392.158 409.818 392.809 409.818 393.564V400H407.523V394.141C407.523 393.516 407.364 393.027 407.045 392.676C406.726 392.318 406.296 392.139 405.756 392.139C404.949 392.139 404.262 392.5 403.695 393.223C403.715 393.34 403.725 393.454 403.725 393.564V400H401.439V394.141C401.439 393.516 401.283 393.027 400.971 392.676C400.658 392.318 400.235 392.139 399.701 392.139C398.894 392.139 398.201 392.52 397.621 393.281V400H395.316ZM411.732 395.098C411.732 394.349 411.859 393.656 412.113 393.018C412.367 392.373 412.715 391.829 413.158 391.387C414.128 390.449 415.271 389.98 416.586 389.98C418.083 389.98 419.255 390.459 420.102 391.416C420.961 392.367 421.391 393.613 421.391 395.156C421.391 395.469 421.378 395.716 421.352 395.898H414.145C414.184 396.608 414.47 397.188 415.004 397.637C415.544 398.079 416.179 398.301 416.908 398.301C417.644 398.301 418.308 398.2 418.9 397.998C419.506 397.79 420.134 397.451 420.785 396.982V399.082C419.646 399.896 418.308 400.303 416.771 400.303C415.84 400.303 415.001 400.111 414.252 399.727C413.503 399.336 412.895 398.74 412.426 397.939C411.964 397.139 411.732 396.191 411.732 395.098ZM414.213 394.18H418.988C418.969 393.542 418.747 393.018 418.324 392.607C417.908 392.191 417.328 391.982 416.586 391.982C415.922 391.982 415.368 392.201 414.926 392.637C414.49 393.073 414.252 393.587 414.213 394.18Z" fill="black"/>
<path d="M28.6339 250.62C28.4739 250.62 28.2606 250.46 27.9939 250.14C27.7406 249.82 27.6139 249.527 27.6139 249.26C27.6139 248.993 28.0072 247.133 28.7939 243.68C29.5939 240.213 30.0006 238.067 30.0139 237.24C30.0139 237.013 30.0406 236.86 30.0939 236.78C30.1606 236.687 30.2872 236.64 30.4739 236.64C30.6739 236.64 30.9272 236.847 31.2339 237.26C31.5539 237.673 31.7139 238.12 31.7139 238.6C31.7139 239.067 31.2339 241.253 30.2739 245.16C30.1806 245.52 30.0539 246.04 29.8939 246.72C29.7339 247.387 29.6072 247.9 29.5139 248.26C29.4206 248.62 29.3206 249.013 29.2139 249.44C28.9872 250.227 28.7939 250.62 28.6339 250.62ZM35.0253 247.22C36.3053 245.047 37.3453 243.433 38.1453 242.38C38.9586 241.313 39.6186 240.78 40.1253 240.78C40.6453 240.78 41.132 241.053 41.5853 241.6C42.052 242.147 42.2853 242.727 42.2853 243.34C42.2853 244.3 42.0653 245.473 41.6253 246.86C40.8253 249.42 40.1053 250.7 39.4653 250.7C39.172 250.7 39.0253 250.5 39.0253 250.1C39.0253 249.82 39.1653 249.253 39.4453 248.4C39.7386 247.533 40.0053 246.687 40.2453 245.86C40.4986 245.02 40.6253 244.393 40.6253 243.98C40.6253 243.553 40.5586 243.24 40.4253 243.04C40.3053 242.84 40.1786 242.74 40.0453 242.74C39.9253 242.74 39.7986 242.78 39.6653 242.86C39.532 242.94 39.3786 243.073 39.2053 243.26C39.0453 243.447 38.892 243.633 38.7453 243.82C38.5986 243.993 38.412 244.247 38.1853 244.58C37.972 244.913 37.792 245.2 37.6453 245.44C37.4986 245.667 37.2853 246 37.0053 246.44C36.7253 246.88 36.512 247.213 36.3653 247.44C36.2186 247.667 36.0253 247.973 35.7853 248.36C35.5453 248.747 35.352 249.047 35.2053 249.26C35.072 249.473 34.9186 249.707 34.7453 249.96C34.412 250.453 34.1453 250.7 33.9453 250.7C33.7586 250.7 33.5386 250.553 33.2853 250.26C33.032 249.953 32.9053 249.687 32.9053 249.46C32.9053 249.393 32.952 249.213 33.0453 248.92C33.2986 248.147 33.5786 247.193 33.8853 246.06C34.192 244.913 34.3586 243.613 34.3853 242.16C34.4253 241.187 34.5653 240.7 34.8053 240.7C35.0986 240.7 35.392 240.853 35.6853 241.16C35.9786 241.467 36.1253 241.807 36.1253 242.18C36.1253 242.54 36.012 243.247 35.7853 244.3C35.572 245.34 35.3186 246.313 35.0253 247.22ZM46.2894 237.94C46.2894 237.673 46.396 237.42 46.6094 237.18C46.8227 236.94 47.036 236.82 47.2494 236.82C47.476 236.82 47.7427 237.093 48.0494 237.64C48.356 238.173 48.5094 238.62 48.5094 238.98C48.5094 239.113 48.4494 239.233 48.3294 239.34C48.2094 239.447 48.0827 239.5 47.9494 239.5C47.6294 239.5 47.2694 239.307 46.8694 238.92C46.4827 238.533 46.2894 238.207 46.2894 237.94ZM46.1894 240.78C46.4427 240.78 46.6827 240.933 46.9094 241.24C47.136 241.547 47.2494 241.847 47.2494 242.14C47.2494 242.433 47.056 243.313 46.6694 244.78C46.2827 246.233 45.796 247.867 45.2094 249.68C44.9827 250.347 44.696 250.68 44.3494 250.68C44.1627 250.68 44.0027 250.607 43.8694 250.46C43.736 250.3 43.6694 250.127 43.6694 249.94C43.6694 249.74 43.716 249.433 43.8094 249.02C43.916 248.593 44.0627 248.033 44.2494 247.34C44.4494 246.633 44.6027 246.06 44.7094 245.62C44.8294 245.18 44.9494 244.687 45.0694 244.14C45.1894 243.58 45.2827 243.133 45.3494 242.8C45.4294 242.453 45.516 242.107 45.6094 241.76C45.796 241.107 45.9894 240.78 46.1894 240.78ZM50.735 248.7C50.735 248.953 50.8817 249.08 51.175 249.08C51.6817 249.08 52.295 248.94 53.015 248.66C53.7483 248.367 54.155 248.22 54.235 248.22C54.475 248.22 54.595 248.347 54.595 248.6C54.595 248.987 54.195 249.433 53.395 249.94C52.6083 250.447 51.8883 250.7 51.235 250.7C50.595 250.7 50.0617 250.527 49.635 250.18C49.2083 249.82 48.995 249.453 48.995 249.08C48.995 248.707 49.075 248.233 49.235 247.66C49.395 247.073 49.6217 246.307 49.915 245.36C50.2217 244.4 50.4617 243.607 50.635 242.98C50.0083 243.127 49.5883 243.2 49.375 243.2C49.1617 243.2 48.9483 243.093 48.735 242.88C48.535 242.653 48.435 242.44 48.435 242.24C48.435 241.92 49.3017 241.613 51.035 241.32C51.275 240.213 51.395 239.233 51.395 238.38C51.395 237.98 51.5283 237.78 51.795 237.78C52.0217 237.78 52.3017 237.927 52.635 238.22C52.9683 238.5 53.135 238.82 53.135 239.18C53.135 239.54 53.0217 240.173 52.795 241.08C53.555 241.013 54.1617 240.98 54.615 240.98C55.415 240.98 55.815 241.153 55.815 241.5C55.815 241.7 55.595 241.867 55.155 242C54.7283 242.133 53.8217 242.34 52.435 242.62C52.155 243.673 51.8017 244.88 51.375 246.24C50.9483 247.587 50.735 248.407 50.735 248.7ZM58.7894 237.94C58.7894 237.673 58.896 237.42 59.1094 237.18C59.3227 236.94 59.536 236.82 59.7494 236.82C59.976 236.82 60.2427 237.093 60.5494 237.64C60.856 238.173 61.0094 238.62 61.0094 238.98C61.0094 239.113 60.9494 239.233 60.8294 239.34C60.7094 239.447 60.5827 239.5 60.4494 239.5C60.1294 239.5 59.7694 239.307 59.3694 238.92C58.9827 238.533 58.7894 238.207 58.7894 237.94ZM58.6894 240.78C58.9427 240.78 59.1827 240.933 59.4094 241.24C59.636 241.547 59.7494 241.847 59.7494 242.14C59.7494 242.433 59.556 243.313 59.1694 244.78C58.7827 246.233 58.296 247.867 57.7094 249.68C57.4827 250.347 57.196 250.68 56.8494 250.68C56.6627 250.68 56.5027 250.607 56.3694 250.46C56.236 250.3 56.1694 250.127 56.1694 249.94C56.1694 249.74 56.216 249.433 56.3094 249.02C56.416 248.593 56.5627 248.033 56.7494 247.34C56.9494 246.633 57.1027 246.06 57.2094 245.62C57.3294 245.18 57.4494 244.687 57.5694 244.14C57.6894 243.58 57.7827 243.133 57.8494 242.8C57.9294 242.453 58.016 242.107 58.1094 241.76C58.296 241.107 58.4894 240.78 58.6894 240.78ZM66.315 240.78C66.915 240.78 67.4683 241.087 67.975 241.7C68.4817 242.3 68.735 242.847 68.735 243.34C68.735 243.82 68.5683 244.313 68.235 244.82C68.395 245.02 68.475 245.193 68.475 245.34C68.475 245.713 68.3883 246.353 68.215 247.26C68.055 248.167 67.955 248.76 67.915 249.04C67.8883 249.32 67.8617 249.547 67.835 249.72C67.8083 249.88 67.775 250.04 67.735 250.2C67.6817 250.533 67.5617 250.7 67.375 250.7C67.135 250.7 66.935 250.493 66.775 250.08C66.6283 249.653 66.5417 249.107 66.515 248.44C65.3283 249.947 64.2283 250.7 63.215 250.7C62.6017 250.7 61.995 250.44 61.395 249.92C60.8083 249.387 60.515 248.84 60.515 248.28C60.515 247.48 60.8083 246.493 61.395 245.32C61.9817 244.133 62.7417 243.08 63.675 242.16C64.6083 241.24 65.4883 240.78 66.315 240.78ZM67.235 244.3C67.235 243.06 66.9883 242.44 66.495 242.44C65.975 242.44 65.3683 242.813 64.675 243.56C63.9817 244.293 63.395 245.127 62.915 246.06C62.435 246.993 62.195 247.733 62.195 248.28C62.195 248.507 62.2883 248.693 62.475 248.84C62.6617 248.973 62.8817 249.04 63.135 249.04C63.7617 249.04 64.4683 248.62 65.255 247.78C66.0417 246.927 66.5883 245.893 66.895 244.68C66.935 244.48 67.0483 244.36 67.235 244.32V244.3ZM74.31 236.86C74.31 239.367 73.79 242.62 72.75 246.62C72.0833 249.34 71.6167 250.7 71.35 250.7C71.1633 250.7 70.9433 250.553 70.69 250.26C70.45 249.967 70.33 249.74 70.33 249.58C70.33 249.42 70.5233 248.593 70.91 247.1C71.2967 245.607 71.6833 243.773 72.07 241.6C72.4567 239.413 72.65 237.447 72.65 235.7C72.65 235.513 72.6767 235.38 72.73 235.3C72.7833 235.22 72.8967 235.18 73.07 235.18C73.2433 235.18 73.49 235.373 73.81 235.76C74.1433 236.133 74.31 236.5 74.31 236.86ZM90.1997 240.78C90.4264 240.78 90.6464 240.867 90.8597 241.04C91.073 241.2 91.1797 241.38 91.1797 241.58C91.1797 241.94 90.693 243.187 89.7197 245.32C88.7597 247.453 88.073 248.893 87.6597 249.64C87.2597 250.373 86.9064 250.74 86.5997 250.74C86.4264 250.74 86.213 250.613 85.9597 250.36C85.7064 250.107 85.5197 249.833 85.3997 249.54C85.0397 248.7 84.653 247.347 84.2397 245.48C83.8264 243.613 83.6197 242.247 83.6197 241.38C83.6197 240.98 83.7397 240.78 83.9797 240.78C84.273 240.78 84.573 240.907 84.8797 241.16C85.1864 241.4 85.3997 241.707 85.5197 242.08C85.5597 242.293 85.613 242.827 85.6797 243.68C85.8664 245.787 86.1864 247.407 86.6397 248.54C86.9997 247.767 87.4597 246.673 88.0197 245.26C88.5797 243.833 89.033 242.733 89.3797 241.96C89.7397 241.173 90.013 240.78 90.1997 240.78ZM97.0572 240.78C97.6572 240.78 98.2105 241.087 98.7172 241.7C99.2239 242.3 99.4772 242.847 99.4772 243.34C99.4772 243.82 99.3105 244.313 98.9772 244.82C99.1372 245.02 99.2172 245.193 99.2172 245.34C99.2172 245.713 99.1305 246.353 98.9572 247.26C98.7972 248.167 98.6972 248.76 98.6572 249.04C98.6305 249.32 98.6039 249.547 98.5772 249.72C98.5505 249.88 98.5172 250.04 98.4772 250.2C98.4239 250.533 98.3039 250.7 98.1172 250.7C97.8772 250.7 97.6772 250.493 97.5172 250.08C97.3705 249.653 97.2839 249.107 97.2572 248.44C96.0705 249.947 94.9705 250.7 93.9572 250.7C93.3439 250.7 92.7372 250.44 92.1372 249.92C91.5505 249.387 91.2572 248.84 91.2572 248.28C91.2572 247.48 91.5505 246.493 92.1372 245.32C92.7239 244.133 93.4839 243.08 94.4172 242.16C95.3505 241.24 96.2305 240.78 97.0572 240.78ZM97.9772 244.3C97.9772 243.06 97.7305 242.44 97.2372 242.44C96.7172 242.44 96.1105 242.813 95.4172 243.56C94.7239 244.293 94.1372 245.127 93.6572 246.06C93.1772 246.993 92.9372 247.733 92.9372 248.28C92.9372 248.507 93.0305 248.693 93.2172 248.84C93.4039 248.973 93.6239 249.04 93.8772 249.04C94.5039 249.04 95.2105 248.62 95.9972 247.78C96.7839 246.927 97.3305 245.893 97.6372 244.68C97.6772 244.48 97.7905 244.36 97.9772 244.32V244.3ZM105.052 236.86C105.052 239.367 104.532 242.62 103.492 246.62C102.826 249.34 102.359 250.7 102.092 250.7C101.906 250.7 101.686 250.553 101.432 250.26C101.192 249.967 101.072 249.74 101.072 249.58C101.072 249.42 101.266 248.593 101.652 247.1C102.039 245.607 102.426 243.773 102.812 241.6C103.199 239.413 103.392 237.447 103.392 235.7C103.392 235.513 103.419 235.38 103.472 235.3C103.526 235.22 103.639 235.18 103.812 235.18C103.986 235.18 104.232 235.373 104.552 235.76C104.886 236.133 105.052 236.5 105.052 236.86ZM113.095 241.34C113.148 241.127 113.201 240.98 113.255 240.9C113.308 240.82 113.421 240.78 113.595 240.78C113.781 240.78 114.001 240.953 114.255 241.3C114.521 241.647 114.655 241.98 114.655 242.3C114.655 242.473 114.361 243.5 113.775 245.38C113.188 247.26 112.735 248.753 112.415 249.86C112.255 250.42 112.028 250.7 111.735 250.7C111.561 250.7 111.415 250.627 111.295 250.48C111.175 250.333 111.115 250.067 111.115 249.68C111.115 249.293 111.268 248.593 111.575 247.58C111.015 248.487 110.408 249.233 109.755 249.82C109.101 250.407 108.501 250.7 107.955 250.7C107.421 250.7 106.915 250.447 106.435 249.94C105.955 249.433 105.715 248.913 105.715 248.38C105.715 247.113 106.081 245.533 106.815 243.64C107.561 241.733 108.181 240.78 108.675 240.78C108.915 240.78 109.121 240.893 109.295 241.12C109.481 241.333 109.575 241.58 109.575 241.86C109.575 241.98 109.395 242.413 109.035 243.16C108.675 243.893 108.315 244.76 107.955 245.76C107.595 246.747 107.415 247.613 107.415 248.36C107.415 248.573 107.481 248.753 107.615 248.9C107.748 249.033 107.908 249.1 108.095 249.1C108.601 249.1 109.201 248.653 109.895 247.76C110.601 246.867 111.241 245.827 111.815 244.64C112.388 243.453 112.815 242.353 113.095 241.34ZM123.623 244.1C123.623 244.807 123.237 245.387 122.463 245.84C121.703 246.28 120.837 246.5 119.863 246.5C118.903 246.5 118.03 246.393 117.243 246.18C117.057 246.767 116.963 247.293 116.963 247.76C116.963 248.213 117.103 248.567 117.383 248.82C117.677 249.073 118.15 249.2 118.803 249.2C119.47 249.2 120.15 249.087 120.843 248.86C121.55 248.62 121.937 248.5 122.003 248.5C122.35 248.5 122.523 248.633 122.523 248.9C122.523 249.26 122.117 249.653 121.303 250.08C120.49 250.493 119.697 250.7 118.923 250.7C117.883 250.7 117.037 250.393 116.383 249.78C115.73 249.153 115.403 248.367 115.403 247.42C115.403 246.473 115.657 245.487 116.163 244.46C116.67 243.42 117.323 242.547 118.123 241.84C118.923 241.133 119.717 240.78 120.503 240.78C121.29 240.78 122.003 241.153 122.643 241.9C123.297 242.647 123.623 243.38 123.623 244.1ZM120.603 242.36C120.11 242.36 119.597 242.62 119.063 243.14C118.53 243.647 118.077 244.28 117.703 245.04C118.237 245.16 118.843 245.22 119.523 245.22C120.203 245.22 120.797 245.113 121.303 244.9C121.81 244.673 122.063 244.38 122.063 244.02C122.063 243.66 121.897 243.293 121.563 242.92C121.243 242.547 120.923 242.36 120.603 242.36ZM139.215 240.72C139.788 240.72 140.281 241.087 140.695 241.82C141.121 242.553 141.335 243.313 141.335 244.1C141.335 244.873 141.108 245.653 140.655 246.44C140.201 247.213 139.641 247.907 138.975 248.52C138.308 249.133 137.568 249.647 136.755 250.06C135.955 250.46 135.215 250.66 134.535 250.66C134.268 250.66 134.015 250.627 133.775 250.56C133.721 250.787 133.628 251.193 133.495 251.78C133.361 252.367 133.248 252.853 133.155 253.24C133.061 253.627 132.955 254.04 132.835 254.48C132.595 255.387 132.381 255.84 132.195 255.84C132.008 255.84 131.815 255.693 131.615 255.4C131.401 255.12 131.295 254.867 131.295 254.64C131.295 254.413 131.508 253.44 131.935 251.72C133.215 246.533 133.855 243.04 133.855 241.24C133.855 240.84 134.001 240.64 134.295 240.64C134.535 240.64 134.821 240.82 135.155 241.18C135.501 241.527 135.675 241.913 135.675 242.34C135.675 242.553 135.648 242.787 135.595 243.04C136.781 241.493 137.988 240.72 139.215 240.72ZM134.335 249.1C135.041 249.1 135.801 248.86 136.615 248.38C137.441 247.9 138.141 247.267 138.715 246.48C139.301 245.68 139.595 244.887 139.595 244.1C139.595 242.993 139.335 242.44 138.815 242.44C138.295 242.44 137.588 242.887 136.695 243.78C135.815 244.673 135.115 245.833 134.595 247.26L134.135 249.1H134.335ZM150.205 244.1C150.205 244.807 149.819 245.387 149.045 245.84C148.285 246.28 147.419 246.5 146.445 246.5C145.485 246.5 144.612 246.393 143.825 246.18C143.639 246.767 143.545 247.293 143.545 247.76C143.545 248.213 143.685 248.567 143.965 248.82C144.259 249.073 144.732 249.2 145.385 249.2C146.052 249.2 146.732 249.087 147.425 248.86C148.132 248.62 148.519 248.5 148.585 248.5C148.932 248.5 149.105 248.633 149.105 248.9C149.105 249.26 148.699 249.653 147.885 250.08C147.072 250.493 146.279 250.7 145.505 250.7C144.465 250.7 143.619 250.393 142.965 249.78C142.312 249.153 141.985 248.367 141.985 247.42C141.985 246.473 142.239 245.487 142.745 244.46C143.252 243.42 143.905 242.547 144.705 241.84C145.505 241.133 146.299 240.78 147.085 240.78C147.872 240.78 148.585 241.153 149.225 241.9C149.879 242.647 150.205 243.38 150.205 244.1ZM147.185 242.36C146.692 242.36 146.179 242.62 145.645 243.14C145.112 243.647 144.659 244.28 144.285 245.04C144.819 245.16 145.425 245.22 146.105 245.22C146.785 245.22 147.379 245.113 147.885 244.9C148.392 244.673 148.645 244.38 148.645 244.02C148.645 243.66 148.479 243.293 148.145 242.92C147.825 242.547 147.505 242.36 147.185 242.36ZM152.429 243.22L152.369 241.72C152.369 241.093 152.516 240.78 152.809 240.78C153.063 240.78 153.303 240.947 153.529 241.28C153.769 241.6 153.889 241.987 153.889 242.44C153.889 242.88 153.876 243.213 153.849 243.44C155.009 241.68 156.109 240.8 157.149 240.8C157.803 240.8 158.129 240.96 158.129 241.28C158.129 241.44 158.056 241.587 157.909 241.72C157.763 241.853 157.529 242.007 157.209 242.18C156.503 242.487 155.903 242.96 155.409 243.6C154.929 244.227 154.536 244.94 154.229 245.74C153.923 246.54 153.676 247.213 153.489 247.76C153.316 248.307 153.183 248.733 153.089 249.04C152.996 249.347 152.889 249.647 152.769 249.94C152.556 250.473 152.309 250.74 152.029 250.74C151.803 250.74 151.616 250.613 151.469 250.36C151.336 250.093 151.269 249.84 151.269 249.6C151.269 249.347 151.383 248.853 151.609 248.12C152.156 246.44 152.429 244.807 152.429 243.22ZM163.57 240.78C164.024 240.78 164.45 241.033 164.85 241.54C165.25 242.033 165.45 242.467 165.45 242.84C165.45 243.067 165.344 243.18 165.13 243.18C164.984 243.18 164.757 243.067 164.45 242.84C164.144 242.6 163.83 242.48 163.51 242.48C163.19 242.48 162.684 242.667 161.99 243.04C161.31 243.413 160.97 243.807 160.97 244.22C160.97 244.527 161.584 245.053 162.81 245.8C163.277 246.093 163.697 246.473 164.07 246.94C164.457 247.393 164.65 247.887 164.65 248.42C164.65 248.94 164.284 249.453 163.55 249.96C162.83 250.453 161.984 250.7 161.01 250.7C160.05 250.7 159.197 250.467 158.45 250C157.717 249.533 157.35 249.093 157.35 248.68C157.35 248.507 157.39 248.373 157.47 248.28C157.564 248.173 157.677 248.12 157.81 248.12C157.944 248.12 158.13 248.207 158.37 248.38C159.09 248.9 159.837 249.16 160.61 249.16C161.397 249.16 161.964 249.073 162.31 248.9C162.657 248.713 162.83 248.473 162.83 248.18C162.83 247.873 162.637 247.553 162.25 247.22C161.864 246.873 161.437 246.567 160.97 246.3C160.517 246.033 160.097 245.707 159.71 245.32C159.324 244.933 159.13 244.54 159.13 244.14C159.13 243.433 159.684 242.7 160.79 241.94C161.91 241.167 162.837 240.78 163.57 240.78ZM168.926 237.94C168.926 237.673 169.033 237.42 169.246 237.18C169.459 236.94 169.673 236.82 169.886 236.82C170.113 236.82 170.379 237.093 170.686 237.64C170.993 238.173 171.146 238.62 171.146 238.98C171.146 239.113 171.086 239.233 170.966 239.34C170.846 239.447 170.719 239.5 170.586 239.5C170.266 239.5 169.906 239.307 169.506 238.92C169.119 238.533 168.926 238.207 168.926 237.94ZM168.826 240.78C169.079 240.78 169.319 240.933 169.546 241.24C169.773 241.547 169.886 241.847 169.886 242.14C169.886 242.433 169.693 243.313 169.306 244.78C168.919 246.233 168.433 247.867 167.846 249.68C167.619 250.347 167.333 250.68 166.986 250.68C166.799 250.68 166.639 250.607 166.506 250.46C166.373 250.3 166.306 250.127 166.306 249.94C166.306 249.74 166.353 249.433 166.446 249.02C166.553 248.593 166.699 248.033 166.886 247.34C167.086 246.633 167.239 246.06 167.346 245.62C167.466 245.18 167.586 244.687 167.706 244.14C167.826 243.58 167.919 243.133 167.986 242.8C168.066 242.453 168.153 242.107 168.246 241.76C168.433 241.107 168.626 240.78 168.826 240.78ZM176.852 240.78C177.305 240.78 177.732 241.033 178.132 241.54C178.532 242.033 178.732 242.467 178.732 242.84C178.732 243.067 178.625 243.18 178.412 243.18C178.265 243.18 178.038 243.067 177.732 242.84C177.425 242.6 177.112 242.48 176.792 242.48C176.472 242.48 175.965 242.667 175.272 243.04C174.592 243.413 174.252 243.807 174.252 244.22C174.252 244.527 174.865 245.053 176.092 245.8C176.558 246.093 176.978 246.473 177.352 246.94C177.738 247.393 177.932 247.887 177.932 248.42C177.932 248.94 177.565 249.453 176.832 249.96C176.112 250.453 175.265 250.7 174.292 250.7C173.332 250.7 172.478 250.467 171.732 250C170.998 249.533 170.632 249.093 170.632 248.68C170.632 248.507 170.672 248.373 170.752 248.28C170.845 248.173 170.958 248.12 171.092 248.12C171.225 248.12 171.412 248.207 171.652 248.38C172.372 248.9 173.118 249.16 173.892 249.16C174.678 249.16 175.245 249.073 175.592 248.9C175.938 248.713 176.112 248.473 176.112 248.18C176.112 247.873 175.918 247.553 175.532 247.22C175.145 246.873 174.718 246.567 174.252 246.3C173.798 246.033 173.378 245.707 172.992 245.32C172.605 244.933 172.412 244.54 172.412 244.14C172.412 243.433 172.965 242.7 174.072 241.94C175.192 241.167 176.118 240.78 176.852 240.78ZM181.887 248.7C181.887 248.953 182.034 249.08 182.327 249.08C182.834 249.08 183.447 248.94 184.167 248.66C184.901 248.367 185.307 248.22 185.387 248.22C185.627 248.22 185.747 248.347 185.747 248.6C185.747 248.987 185.347 249.433 184.547 249.94C183.761 250.447 183.041 250.7 182.387 250.7C181.747 250.7 181.214 250.527 180.787 250.18C180.361 249.82 180.147 249.453 180.147 249.08C180.147 248.707 180.227 248.233 180.387 247.66C180.547 247.073 180.774 246.307 181.067 245.36C181.374 244.4 181.614 243.607 181.787 242.98C181.161 243.127 180.741 243.2 180.527 243.2C180.314 243.2 180.101 243.093 179.887 242.88C179.687 242.653 179.587 242.44 179.587 242.24C179.587 241.92 180.454 241.613 182.187 241.32C182.427 240.213 182.547 239.233 182.547 238.38C182.547 237.98 182.681 237.78 182.947 237.78C183.174 237.78 183.454 237.927 183.787 238.22C184.121 238.5 184.287 238.82 184.287 239.18C184.287 239.54 184.174 240.173 183.947 241.08C184.707 241.013 185.314 240.98 185.767 240.98C186.567 240.98 186.967 241.153 186.967 241.5C186.967 241.7 186.747 241.867 186.307 242C185.881 242.133 184.974 242.34 183.587 242.62C183.307 243.673 182.954 244.88 182.527 246.24C182.101 247.587 181.887 248.407 181.887 248.7ZM195.362 244.1C195.362 244.807 194.975 245.387 194.202 245.84C193.442 246.28 192.575 246.5 191.602 246.5C190.642 246.5 189.768 246.393 188.982 246.18C188.795 246.767 188.702 247.293 188.702 247.76C188.702 248.213 188.842 248.567 189.122 248.82C189.415 249.073 189.888 249.2 190.542 249.2C191.208 249.2 191.888 249.087 192.582 248.86C193.288 248.62 193.675 248.5 193.742 248.5C194.088 248.5 194.262 248.633 194.262 248.9C194.262 249.26 193.855 249.653 193.042 250.08C192.228 250.493 191.435 250.7 190.662 250.7C189.622 250.7 188.775 250.393 188.122 249.78C187.468 249.153 187.142 248.367 187.142 247.42C187.142 246.473 187.395 245.487 187.902 244.46C188.408 243.42 189.062 242.547 189.862 241.84C190.662 241.133 191.455 240.78 192.242 240.78C193.028 240.78 193.742 241.153 194.382 241.9C195.035 242.647 195.362 243.38 195.362 244.1ZM192.342 242.36C191.848 242.36 191.335 242.62 190.802 243.14C190.268 243.647 189.815 244.28 189.442 245.04C189.975 245.16 190.582 245.22 191.262 245.22C191.942 245.22 192.535 245.113 193.042 244.9C193.548 244.673 193.802 244.38 193.802 244.02C193.802 243.66 193.635 243.293 193.302 242.92C192.982 242.547 192.662 242.36 192.342 242.36ZM204.946 235.18C205.159 235.18 205.419 235.38 205.726 235.78C206.046 236.167 206.206 236.533 206.206 236.88C206.206 237.227 206.039 238.213 205.706 239.84C205.372 241.453 204.986 243.127 204.546 244.86C203.586 248.753 202.952 250.7 202.646 250.7C202.459 250.7 202.252 250.587 202.026 250.36C201.812 250.12 201.706 249.913 201.706 249.74C201.706 249.567 201.752 249.22 201.846 248.7C200.539 250.033 199.399 250.7 198.426 250.7C197.839 250.7 197.306 250.433 196.826 249.9C196.359 249.367 196.126 248.813 196.126 248.24C196.126 247.413 196.346 246.433 196.786 245.3C197.239 244.153 197.886 243.113 198.726 242.18C199.566 241.247 200.459 240.78 201.406 240.78C202.352 240.78 203.012 241.347 203.386 242.48C204.066 239.653 204.439 237.42 204.506 235.78C204.506 235.38 204.652 235.18 204.946 235.18ZM202.746 245C202.746 244.28 202.619 243.673 202.366 243.18C202.126 242.687 201.832 242.44 201.486 242.44C200.912 242.44 200.326 242.793 199.726 243.5C199.126 244.207 198.646 245.02 198.286 245.94C197.939 246.847 197.766 247.633 197.766 248.3C197.766 248.54 197.852 248.733 198.026 248.88C198.199 249.027 198.406 249.1 198.646 249.1C199.166 249.1 199.866 248.727 200.746 247.98C201.639 247.233 202.286 246.353 202.686 245.34L202.746 245.1V245ZM52.0205 265.3C52.0205 265.833 51.7871 266.44 51.3205 267.12C50.9605 267.933 50.5738 269.107 50.1605 270.64C49.7471 272.16 49.4005 273.247 49.1205 273.9C48.5605 275.26 47.7005 275.94 46.5405 275.94C45.5938 275.94 44.7938 275.68 44.1405 275.16C43.5005 274.653 43.1805 274.147 43.1805 273.64C43.1805 273.427 43.2471 273.213 43.3805 273C43.5005 272.787 43.6271 272.68 43.7605 272.68C43.9071 272.68 44.0671 272.78 44.2405 272.98C44.4138 273.18 44.5738 273.393 44.7205 273.62C44.8805 273.86 45.1138 274.08 45.4205 274.28C45.7405 274.48 46.0471 274.58 46.3405 274.58C46.6338 274.58 46.8538 274.533 47.0005 274.44C47.1471 274.36 47.2871 274.22 47.4205 274.02C47.5538 273.833 47.6671 273.64 47.7605 273.44C47.8538 273.253 47.9538 272.98 48.0605 272.62C48.1805 272.273 48.2738 271.973 48.3405 271.72C48.4071 271.467 48.5005 271.113 48.6205 270.66C48.7405 270.193 48.8405 269.82 48.9205 269.54C47.8805 270.313 47.0338 270.7 46.3805 270.7C45.7271 270.7 45.1605 270.44 44.6805 269.92C44.2005 269.387 43.9605 268.773 43.9605 268.08C43.9605 267.373 44.2205 266.44 44.7405 265.28C45.2738 264.12 45.9871 263.08 46.8805 262.16C47.7738 261.24 48.6471 260.78 49.5005 260.78C50.0471 260.78 50.5071 260.987 50.8805 261.4C51.4938 262.08 51.8005 263.047 51.8005 264.3C51.8005 264.46 51.7938 264.573 51.7805 264.64C51.9405 264.867 52.0205 265.087 52.0205 265.3ZM45.5805 268.28C45.5805 268.507 45.6538 268.693 45.8005 268.84C45.9471 268.973 46.1338 269.04 46.3605 269.04C47.0271 269.04 47.8138 268.647 48.7205 267.86C49.6271 267.06 50.2671 266.133 50.6405 265.08C50.5871 264.907 50.5405 264.64 50.5005 264.28C50.4605 263.92 50.4205 263.633 50.3805 263.42C50.3405 263.207 50.2538 262.993 50.1205 262.78C49.9871 262.553 49.8138 262.44 49.6005 262.44C49.0805 262.44 48.4938 262.813 47.8405 263.56C47.1871 264.307 46.6471 265.14 46.2205 266.06C45.7938 266.98 45.5805 267.72 45.5805 268.28ZM59.6327 264.18C59.6327 263.727 59.5593 263.3 59.4127 262.9C59.266 262.487 59.0527 262.187 58.7727 262C57.8527 262.253 57.0593 262.967 56.3927 264.14C55.7393 265.3 55.4127 266.393 55.4127 267.42C55.4127 268.447 55.666 269.087 56.1727 269.34C57.1327 269.153 57.946 268.5 58.6127 267.38C59.2927 266.247 59.6327 265.18 59.6327 264.18ZM54.3727 264.36C54.8393 263.32 55.446 262.467 56.1927 261.8C56.9527 261.12 57.726 260.78 58.5127 260.78C59.3127 260.78 59.9793 261.12 60.5127 261.8C61.046 262.467 61.3127 263.287 61.3127 264.26C61.3127 265.22 61.0793 266.207 60.6127 267.22C60.146 268.22 59.4993 269.053 58.6727 269.72C57.8593 270.373 56.9927 270.7 56.0727 270.7C55.3927 270.7 54.826 270.387 54.3727 269.76C53.9193 269.133 53.6927 268.34 53.6927 267.38C53.6927 266.407 53.9193 265.4 54.3727 264.36ZM65.2152 257.94C65.2152 257.673 65.3218 257.42 65.5352 257.18C65.7485 256.94 65.9618 256.82 66.1752 256.82C66.4018 256.82 66.6685 257.093 66.9752 257.64C67.2818 258.173 67.4352 258.62 67.4352 258.98C67.4352 259.113 67.3752 259.233 67.2552 259.34C67.1352 259.447 67.0085 259.5 66.8752 259.5C66.5552 259.5 66.1952 259.307 65.7952 258.92C65.4085 258.533 65.2152 258.207 65.2152 257.94ZM65.1152 260.78C65.3685 260.78 65.6085 260.933 65.8352 261.24C66.0618 261.547 66.1752 261.847 66.1752 262.14C66.1752 262.433 65.9818 263.313 65.5952 264.78C65.2085 266.233 64.7218 267.867 64.1352 269.68C63.9085 270.347 63.6218 270.68 63.2752 270.68C63.0885 270.68 62.9285 270.607 62.7952 270.46C62.6618 270.3 62.5952 270.127 62.5952 269.94C62.5952 269.74 62.6418 269.433 62.7352 269.02C62.8418 268.593 62.9885 268.033 63.1752 267.34C63.3752 266.633 63.5285 266.06 63.6352 265.62C63.7552 265.18 63.8752 264.687 63.9952 264.14C64.1152 263.58 64.2085 263.133 64.2752 262.8C64.3552 262.453 64.4418 262.107 64.5352 261.76C64.7218 261.107 64.9152 260.78 65.1152 260.78ZM69.3808 267.22C70.6608 265.047 71.7008 263.433 72.5008 262.38C73.3141 261.313 73.9741 260.78 74.4808 260.78C75.0008 260.78 75.4874 261.053 75.9408 261.6C76.4074 262.147 76.6408 262.727 76.6408 263.34C76.6408 264.3 76.4208 265.473 75.9808 266.86C75.1808 269.42 74.4608 270.7 73.8208 270.7C73.5274 270.7 73.3808 270.5 73.3808 270.1C73.3808 269.82 73.5208 269.253 73.8008 268.4C74.0941 267.533 74.3608 266.687 74.6008 265.86C74.8541 265.02 74.9808 264.393 74.9808 263.98C74.9808 263.553 74.9141 263.24 74.7808 263.04C74.6608 262.84 74.5341 262.74 74.4008 262.74C74.2808 262.74 74.1541 262.78 74.0208 262.86C73.8874 262.94 73.7341 263.073 73.5608 263.26C73.4008 263.447 73.2474 263.633 73.1008 263.82C72.9541 263.993 72.7674 264.247 72.5408 264.58C72.3274 264.913 72.1474 265.2 72.0008 265.44C71.8541 265.667 71.6408 266 71.3608 266.44C71.0808 266.88 70.8674 267.213 70.7208 267.44C70.5741 267.667 70.3808 267.973 70.1408 268.36C69.9008 268.747 69.7074 269.047 69.5608 269.26C69.4274 269.473 69.2741 269.707 69.1008 269.96C68.7674 270.453 68.5008 270.7 68.3008 270.7C68.1141 270.7 67.8941 270.553 67.6408 270.26C67.3874 269.953 67.2608 269.687 67.2608 269.46C67.2608 269.393 67.3074 269.213 67.4008 268.92C67.6541 268.147 67.9341 267.193 68.2408 266.06C68.5474 264.913 68.7141 263.613 68.7408 262.16C68.7808 261.187 68.9208 260.7 69.1608 260.7C69.4541 260.7 69.7474 260.853 70.0408 261.16C70.3341 261.467 70.4808 261.807 70.4808 262.18C70.4808 262.54 70.3674 263.247 70.1408 264.3C69.9274 265.34 69.6741 266.313 69.3808 267.22ZM86.0048 265.3C86.0048 265.833 85.7715 266.44 85.3048 267.12C84.9448 267.933 84.5582 269.107 84.1448 270.64C83.7315 272.16 83.3848 273.247 83.1048 273.9C82.5448 275.26 81.6848 275.94 80.5248 275.94C79.5782 275.94 78.7782 275.68 78.1248 275.16C77.4848 274.653 77.1648 274.147 77.1648 273.64C77.1648 273.427 77.2315 273.213 77.3648 273C77.4848 272.787 77.6115 272.68 77.7448 272.68C77.8915 272.68 78.0515 272.78 78.2248 272.98C78.3982 273.18 78.5582 273.393 78.7048 273.62C78.8648 273.86 79.0982 274.08 79.4048 274.28C79.7248 274.48 80.0315 274.58 80.3248 274.58C80.6182 274.58 80.8382 274.533 80.9848 274.44C81.1315 274.36 81.2715 274.22 81.4048 274.02C81.5382 273.833 81.6515 273.64 81.7448 273.44C81.8382 273.253 81.9382 272.98 82.0448 272.62C82.1648 272.273 82.2582 271.973 82.3248 271.72C82.3915 271.467 82.4848 271.113 82.6048 270.66C82.7248 270.193 82.8248 269.82 82.9048 269.54C81.8648 270.313 81.0182 270.7 80.3648 270.7C79.7115 270.7 79.1448 270.44 78.6648 269.92C78.1848 269.387 77.9448 268.773 77.9448 268.08C77.9448 267.373 78.2048 266.44 78.7248 265.28C79.2582 264.12 79.9715 263.08 80.8648 262.16C81.7582 261.24 82.6315 260.78 83.4848 260.78C84.0315 260.78 84.4915 260.987 84.8648 261.4C85.4782 262.08 85.7848 263.047 85.7848 264.3C85.7848 264.46 85.7782 264.573 85.7648 264.64C85.9248 264.867 86.0048 265.087 86.0048 265.3ZM79.5648 268.28C79.5648 268.507 79.6382 268.693 79.7848 268.84C79.9315 268.973 80.1182 269.04 80.3448 269.04C81.0115 269.04 81.7982 268.647 82.7048 267.86C83.6115 267.06 84.2515 266.133 84.6248 265.08C84.5715 264.907 84.5248 264.64 84.4848 264.28C84.4448 263.92 84.4048 263.633 84.3648 263.42C84.3248 263.207 84.2382 262.993 84.1048 262.78C83.9715 262.553 83.7982 262.44 83.5848 262.44C83.0648 262.44 82.4782 262.813 81.8248 263.56C81.1715 264.307 80.6315 265.14 80.2048 266.06C79.7782 266.98 79.5648 267.72 79.5648 268.28ZM96.4644 270.7C96.2777 270.7 96.0577 270.56 95.8044 270.28C95.551 269.987 95.4244 269.713 95.4244 269.46C95.4244 269.207 95.631 268.34 96.0444 266.86C96.471 265.38 96.891 263.6 97.3044 261.52C97.731 259.427 97.9444 257.513 97.9444 255.78C97.9444 255.38 98.091 255.18 98.3844 255.18C98.5977 255.18 98.8577 255.38 99.1644 255.78C99.471 256.167 99.6244 256.547 99.6244 256.92C99.6244 258.56 99.2644 260.9 98.5444 263.94C100.131 261.793 101.571 260.72 102.864 260.72C103.491 260.72 104.018 261.027 104.444 261.64C104.884 262.253 105.104 262.987 105.104 263.84C105.104 264.68 104.858 265.647 104.364 266.74C103.884 267.833 103.231 268.773 102.404 269.56C101.578 270.333 100.711 270.72 99.8044 270.72C98.8977 270.72 98.0044 270.26 97.1244 269.34L97.1044 269.36C96.811 270.253 96.5977 270.7 96.4644 270.7ZM99.6444 269.16C100.511 269.16 101.358 268.573 102.184 267.4C103.024 266.213 103.444 264.967 103.444 263.66C103.444 262.873 103.204 262.48 102.724 262.48C101.951 262.48 101.084 263.02 100.124 264.1C99.1777 265.18 98.3577 266.467 97.6644 267.96C98.291 268.76 98.951 269.16 99.6444 269.16ZM111.432 260.78C112.032 260.78 112.586 261.087 113.092 261.7C113.599 262.3 113.852 262.847 113.852 263.34C113.852 263.82 113.686 264.313 113.352 264.82C113.512 265.02 113.592 265.193 113.592 265.34C113.592 265.713 113.506 266.353 113.332 267.26C113.172 268.167 113.072 268.76 113.032 269.04C113.006 269.32 112.979 269.547 112.952 269.72C112.926 269.88 112.892 270.04 112.852 270.2C112.799 270.533 112.679 270.7 112.492 270.7C112.252 270.7 112.052 270.493 111.892 270.08C111.746 269.653 111.659 269.107 111.632 268.44C110.446 269.947 109.346 270.7 108.332 270.7C107.719 270.7 107.112 270.44 106.512 269.92C105.926 269.387 105.632 268.84 105.632 268.28C105.632 267.48 105.926 266.493 106.512 265.32C107.099 264.133 107.859 263.08 108.792 262.16C109.726 261.24 110.606 260.78 111.432 260.78ZM112.352 264.3C112.352 263.06 112.106 262.44 111.612 262.44C111.092 262.44 110.486 262.813 109.792 263.56C109.099 264.293 108.512 265.127 108.032 266.06C107.552 266.993 107.312 267.733 107.312 268.28C107.312 268.507 107.406 268.693 107.592 268.84C107.779 268.973 107.999 269.04 108.252 269.04C108.879 269.04 109.586 268.62 110.372 267.78C111.159 266.927 111.706 265.893 112.012 264.68C112.052 264.48 112.166 264.36 112.352 264.32V264.3ZM118.707 270.7C117.934 270.7 117.207 270.4 116.527 269.8C115.847 269.187 115.507 268.467 115.507 267.64C115.507 266.8 115.787 265.833 116.347 264.74C116.907 263.647 117.627 262.713 118.507 261.94C119.401 261.167 120.267 260.78 121.107 260.78C121.654 260.78 122.134 261.027 122.547 261.52C122.961 262.013 123.167 262.447 123.167 262.82C123.167 262.927 123.134 263.02 123.067 263.1C123.001 263.167 122.901 263.2 122.767 263.2C122.647 263.2 122.427 263.08 122.107 262.84C121.787 262.6 121.501 262.48 121.247 262.48C120.527 262.48 119.687 263.113 118.727 264.38C117.767 265.647 117.287 266.753 117.287 267.7C117.287 268.113 117.414 268.44 117.667 268.68C117.934 268.92 118.354 269.04 118.927 269.04C119.514 269.04 120.047 268.973 120.527 268.84C121.021 268.693 121.401 268.553 121.667 268.42C121.934 268.273 122.141 268.2 122.287 268.2C122.541 268.2 122.667 268.327 122.667 268.58C122.667 268.967 122.201 269.42 121.267 269.94C120.347 270.447 119.494 270.7 118.707 270.7ZM133.233 261.86C133.233 261.98 132.64 262.607 131.453 263.74C131.013 264.167 130.607 264.673 130.233 265.26C129.873 265.833 129.693 266.36 129.693 266.84C129.693 267.32 129.833 267.767 130.113 268.18C130.407 268.58 130.72 268.887 131.053 269.1C131.4 269.3 131.713 269.5 131.993 269.7C132.287 269.9 132.433 270.067 132.433 270.2C132.433 270.533 132.167 270.7 131.633 270.7C131.113 270.7 130.487 270.407 129.753 269.82C129.033 269.22 128.587 268.553 128.413 267.82C128.347 267.687 128.293 267.56 128.253 267.44C127.347 268.667 126.687 269.52 126.273 270C125.873 270.467 125.573 270.7 125.373 270.7C125.173 270.7 124.953 270.547 124.713 270.24C124.473 269.92 124.353 269.66 124.353 269.46C124.353 269.247 124.567 268.387 124.993 266.88C125.433 265.36 125.867 263.54 126.293 261.42C126.733 259.3 126.953 257.407 126.953 255.74C126.953 255.527 126.98 255.38 127.033 255.3C127.1 255.22 127.233 255.18 127.433 255.18C127.633 255.18 127.88 255.38 128.173 255.78C128.467 256.167 128.613 256.547 128.613 256.92C128.613 258.107 128.373 259.767 127.893 261.9C127.413 264.033 126.84 266.06 126.173 267.98C127.68 265.833 128.98 264.1 130.073 262.78C131.18 261.447 131.86 260.78 132.113 260.78C132.38 260.78 132.633 260.907 132.873 261.16C133.113 261.413 133.233 261.647 133.233 261.86ZM141.808 262.9L141.668 266.66C141.668 267.7 141.715 268.453 141.808 268.92C142.382 268.32 142.875 267.62 143.288 266.82C143.715 266.007 144.028 265.253 144.228 264.56C144.442 263.867 144.622 263.22 144.768 262.62C144.928 262.007 145.075 261.52 145.208 261.16C145.342 260.8 145.495 260.62 145.668 260.62C145.922 260.62 146.148 260.727 146.348 260.94C146.548 261.14 146.648 261.373 146.648 261.64C146.648 262.32 146.342 263.44 145.728 265C145.208 266.44 144.528 267.76 143.688 268.96C142.848 270.147 142.195 270.74 141.728 270.74C141.262 270.74 140.908 270.48 140.668 269.96C140.442 269.44 140.315 268.447 140.288 266.98C140.262 265.5 140.282 264.22 140.348 263.14C139.428 265.647 138.615 267.54 137.908 268.82C137.202 270.1 136.642 270.74 136.228 270.74C136.042 270.74 135.842 270.653 135.628 270.48C135.428 270.307 135.268 270.08 135.148 269.8C134.855 269.093 134.602 267.747 134.388 265.76C134.188 263.76 134.088 262.333 134.088 261.48C134.088 260.933 134.255 260.66 134.588 260.66C134.882 260.66 135.148 260.827 135.388 261.16C135.642 261.493 135.788 261.827 135.828 262.16C135.868 262.48 135.902 263.387 135.928 264.88C135.968 266.36 136.095 267.68 136.308 268.84C136.855 267.893 137.402 266.707 137.948 265.28C138.508 263.853 138.962 262.733 139.308 261.92C139.668 261.107 139.995 260.7 140.288 260.7C140.728 260.7 141.088 260.907 141.368 261.32C141.662 261.72 141.808 262.247 141.808 262.9ZM152.545 260.78C153.145 260.78 153.699 261.087 154.205 261.7C154.712 262.3 154.965 262.847 154.965 263.34C154.965 263.82 154.799 264.313 154.465 264.82C154.625 265.02 154.705 265.193 154.705 265.34C154.705 265.713 154.619 266.353 154.445 267.26C154.285 268.167 154.185 268.76 154.145 269.04C154.119 269.32 154.092 269.547 154.065 269.72C154.039 269.88 154.005 270.04 153.965 270.2C153.912 270.533 153.792 270.7 153.605 270.7C153.365 270.7 153.165 270.493 153.005 270.08C152.859 269.653 152.772 269.107 152.745 268.44C151.559 269.947 150.459 270.7 149.445 270.7C148.832 270.7 148.225 270.44 147.625 269.92C147.039 269.387 146.745 268.84 146.745 268.28C146.745 267.48 147.039 266.493 147.625 265.32C148.212 264.133 148.972 263.08 149.905 262.16C150.839 261.24 151.719 260.78 152.545 260.78ZM153.465 264.3C153.465 263.06 153.219 262.44 152.725 262.44C152.205 262.44 151.599 262.813 150.905 263.56C150.212 264.293 149.625 265.127 149.145 266.06C148.665 266.993 148.425 267.733 148.425 268.28C148.425 268.507 148.519 268.693 148.705 268.84C148.892 268.973 149.112 269.04 149.365 269.04C149.992 269.04 150.699 268.62 151.485 267.78C152.272 266.927 152.819 265.893 153.125 264.68C153.165 264.48 153.279 264.36 153.465 264.32V264.3ZM157.8 263.22L157.74 261.72C157.74 261.093 157.887 260.78 158.18 260.78C158.434 260.78 158.674 260.947 158.9 261.28C159.14 261.6 159.26 261.987 159.26 262.44C159.26 262.88 159.247 263.213 159.22 263.44C160.38 261.68 161.48 260.8 162.52 260.8C163.174 260.8 163.5 260.96 163.5 261.28C163.5 261.44 163.427 261.587 163.28 261.72C163.134 261.853 162.9 262.007 162.58 262.18C161.874 262.487 161.274 262.96 160.78 263.6C160.3 264.227 159.907 264.94 159.6 265.74C159.294 266.54 159.047 267.213 158.86 267.76C158.687 268.307 158.554 268.733 158.46 269.04C158.367 269.347 158.26 269.647 158.14 269.94C157.927 270.473 157.68 270.74 157.4 270.74C157.174 270.74 156.987 270.613 156.84 270.36C156.707 270.093 156.64 269.84 156.64 269.6C156.64 269.347 156.754 268.853 156.98 268.12C157.527 266.44 157.8 264.807 157.8 263.22ZM171.782 255.18C171.995 255.18 172.255 255.38 172.562 255.78C172.882 256.167 173.042 256.533 173.042 256.88C173.042 257.227 172.875 258.213 172.542 259.84C172.208 261.453 171.822 263.127 171.382 264.86C170.422 268.753 169.788 270.7 169.482 270.7C169.295 270.7 169.088 270.587 168.862 270.36C168.648 270.12 168.542 269.913 168.542 269.74C168.542 269.567 168.588 269.22 168.682 268.7C167.375 270.033 166.235 270.7 165.262 270.7C164.675 270.7 164.142 270.433 163.662 269.9C163.195 269.367 162.962 268.813 162.962 268.24C162.962 267.413 163.182 266.433 163.622 265.3C164.075 264.153 164.722 263.113 165.562 262.18C166.402 261.247 167.295 260.78 168.242 260.78C169.188 260.78 169.848 261.347 170.222 262.48C170.902 259.653 171.275 257.42 171.342 255.78C171.342 255.38 171.488 255.18 171.782 255.18ZM169.582 265C169.582 264.28 169.455 263.673 169.202 263.18C168.962 262.687 168.668 262.44 168.322 262.44C167.748 262.44 167.162 262.793 166.562 263.5C165.962 264.207 165.482 265.02 165.122 265.94C164.775 266.847 164.602 267.633 164.602 268.3C164.602 268.54 164.688 268.733 164.862 268.88C165.035 269.027 165.242 269.1 165.482 269.1C166.002 269.1 166.702 268.727 167.582 267.98C168.475 267.233 169.122 266.353 169.522 265.34L169.582 265.1V265ZM178.922 260.78C179.375 260.78 179.802 261.033 180.202 261.54C180.602 262.033 180.802 262.467 180.802 262.84C180.802 263.067 180.695 263.18 180.482 263.18C180.335 263.18 180.109 263.067 179.802 262.84C179.495 262.6 179.182 262.48 178.862 262.48C178.542 262.48 178.035 262.667 177.342 263.04C176.662 263.413 176.322 263.807 176.322 264.22C176.322 264.527 176.935 265.053 178.162 265.8C178.629 266.093 179.049 266.473 179.422 266.94C179.809 267.393 180.002 267.887 180.002 268.42C180.002 268.94 179.635 269.453 178.902 269.96C178.182 270.453 177.335 270.7 176.362 270.7C175.402 270.7 174.549 270.467 173.802 270C173.069 269.533 172.702 269.093 172.702 268.68C172.702 268.507 172.742 268.373 172.822 268.28C172.915 268.173 173.029 268.12 173.162 268.12C173.295 268.12 173.482 268.207 173.722 268.38C174.442 268.9 175.189 269.16 175.962 269.16C176.749 269.16 177.315 269.073 177.662 268.9C178.009 268.713 178.182 268.473 178.182 268.18C178.182 267.873 177.989 267.553 177.602 267.22C177.215 266.873 176.789 266.567 176.322 266.3C175.869 266.033 175.449 265.707 175.062 265.32C174.675 264.933 174.482 264.54 174.482 264.14C174.482 263.433 175.035 262.7 176.142 261.94C177.262 261.167 178.189 260.78 178.922 260.78ZM182.798 268.56C183.024 268.28 183.251 268.14 183.478 268.14C183.704 268.14 183.978 268.467 184.298 269.12C184.618 269.76 184.778 270.24 184.778 270.56C184.778 270.653 184.711 270.76 184.578 270.88C184.444 271 184.318 271.06 184.198 271.06C183.864 271.06 183.491 270.853 183.078 270.44C182.664 270.013 182.458 269.667 182.458 269.4C182.458 269.12 182.571 268.84 182.798 268.56ZM185.378 254.8C185.631 254.8 185.978 254.96 186.418 255.28C186.858 255.6 187.078 255.853 187.078 256.04C187.078 257.173 186.784 259.167 186.198 262.02C185.624 264.873 185.164 266.3 184.818 266.3C184.604 266.3 184.404 266.193 184.218 265.98C184.031 265.753 183.938 265.52 183.938 265.28C183.924 265.2 184.004 264.72 184.178 263.84C184.364 262.96 184.558 261.727 184.758 260.14C184.958 258.54 185.058 256.933 185.058 255.32C185.058 254.973 185.164 254.8 185.378 254.8Z" fill="black"/>
<path d="M160 374.5C160 374.5 164.314 359.378 160 351.5C152.122 337.114 125.878 342.386 118 328C113.686 320.122 118 283.5 118 283.5" stroke="#E56076" stroke-width="3"/>
<defs>
<linearGradient id="paint0_linear" x1="235" y1="401" x2="468" y2="401" gradientUnits="userSpaceOnUse">
<stop stop-color="#E56076"/>
<stop offset="0.879168" stop-color="#E56177"/>
</linearGradient>
<linearGradient id="paint1_linear" x1="10.0862" y1="248.5" x2="798.999" y2="253.097" gradientUnits="userSpaceOnUse">
<stop stop-color="#4D3EF6"/>
<stop offset="0.92558" stop-color="#4D3EF6"/>
<stop offset="1" stop-color="#4D3EF6"/>
</linearGradient>
</defs>
</svg>
