<svg width="800" height="405" viewBox="0 0 800 405" fill="none" xmlns="http://www.w3.org/2000/svg">
<path d="M2 134.151C331.633 127.126 309.609 366.974 566 366.974V134.151L775.5 134.151V366.974H566H2V134.151Z" fill="#4D3EF6"/>
<path d="M2 367C0.89543 367 0 367.895 0 369C0 370.105 0.89543 371 2 371V367ZM799.414 370.414C800.195 369.633 800.195 368.367 799.414 367.586L786.686 354.858C785.905 354.077 784.639 354.077 783.858 354.858C783.077 355.639 783.077 356.905 783.858 357.686L795.172 369L783.858 380.314C783.077 381.095 783.077 382.361 783.858 383.142C784.639 383.923 785.905 383.923 786.686 383.142L799.414 370.414ZM2 371H798V367H2V371Z" fill="black"/>
<line x1="1" y1="369" x2="0.999988" y2="104" stroke="black" stroke-opacity="0.46" stroke-width="2" stroke-dasharray="10 10"/>
<line x1="565" y1="369" x2="565" y2="104" stroke="black" stroke-opacity="0.46" stroke-width="2" stroke-dasharray="10 10"/>
<path d="M196.146 38L201.674 23.9961H204.447L209.975 38H207.387L206.127 34.7773H199.955L198.734 38H196.146ZM200.795 32.5801H205.268L203.012 26.7598L200.795 32.5801ZM211.547 38V28.3027H213.812V29.1621C214.6 28.3743 215.541 27.9805 216.635 27.9805C217.26 27.9805 217.839 28.1139 218.373 28.3809C218.907 28.6478 219.35 29.0612 219.701 29.6211C220.053 30.1745 220.229 30.8223 220.229 31.5645V38H217.934V32.1406C217.934 31.5221 217.748 31.0371 217.377 30.6855C217.012 30.321 216.55 30.1387 215.99 30.1387C215.144 30.1387 214.431 30.5195 213.852 31.2812V38H211.547ZM222.416 24.6602C222.416 24.2174 222.562 23.8496 222.855 23.5566C223.148 23.2637 223.51 23.1172 223.939 23.1172C224.389 23.1172 224.76 23.2637 225.053 23.5566C225.352 23.8431 225.502 24.2109 225.502 24.6602C225.502 25.0964 225.352 25.4577 225.053 25.7441C224.76 26.0241 224.389 26.1641 223.939 26.1641C223.503 26.1641 223.139 26.0241 222.846 25.7441C222.559 25.4577 222.416 25.0964 222.416 24.6602ZM222.816 38V28.3027H225.121V38H222.816ZM227.875 38V28.3027H230.141V29.1621C230.857 28.3743 231.775 27.9805 232.895 27.9805C233.461 27.9805 233.985 28.0977 234.467 28.332C234.949 28.5664 235.346 28.9082 235.658 29.3574C236.518 28.4395 237.585 27.9805 238.861 27.9805C239.486 27.9805 240.059 28.1139 240.58 28.3809C241.101 28.6478 241.531 29.0579 241.869 29.6113C242.208 30.1582 242.377 30.8092 242.377 31.5645V38H240.082V32.1406C240.082 31.5156 239.923 31.0273 239.604 30.6758C239.285 30.3177 238.855 30.1387 238.314 30.1387C237.507 30.1387 236.82 30.5 236.254 31.2227C236.273 31.3398 236.283 31.4538 236.283 31.5645V38H233.998V32.1406C233.998 31.5156 233.842 31.0273 233.529 30.6758C233.217 30.3177 232.794 30.1387 232.26 30.1387C231.452 30.1387 230.759 30.5195 230.18 31.2812V38H227.875ZM244.438 34.9434C244.464 33.9668 244.831 33.2051 245.541 32.6582C246.257 32.1048 247.117 31.8314 248.119 31.8379C249.109 31.8379 249.968 32.0397 250.697 32.4434V31.6035C250.697 31.1478 250.525 30.7702 250.18 30.4707C249.835 30.1712 249.327 30.0215 248.656 30.0215C247.458 30.0215 246.238 30.3958 244.994 31.1445V28.8789C246.199 28.2799 247.468 27.9805 248.803 27.9805C249.76 27.9805 250.548 28.1432 251.166 28.4688C251.785 28.7943 252.243 29.224 252.543 29.7578C252.849 30.2852 253.002 30.8646 253.002 31.4961V38H250.814V37.2773C250.085 37.9609 249.167 38.3027 248.061 38.3027C246.986 38.3027 246.114 38.0065 245.443 37.4141C244.773 36.8086 244.438 35.985 244.438 34.9434ZM246.762 34.9043C246.762 35.3796 246.934 35.7572 247.279 36.0371C247.631 36.3171 248.07 36.457 248.598 36.457C249.04 36.457 249.447 36.3724 249.818 36.2031C250.202 36.0339 250.495 35.8451 250.697 35.6367V34.1621C250.489 33.9863 250.193 33.8333 249.809 33.7031C249.431 33.5664 249.027 33.498 248.598 33.498C248.083 33.498 247.647 33.625 247.289 33.8789C246.938 34.1328 246.762 34.4746 246.762 34.9043ZM254.418 30.2754V28.3027H256.215V25.5586L258.393 24.5625V28.3027H260.678V30.2754H258.393V34.9238C258.393 35.7897 258.868 36.2227 259.818 36.2227C260.15 36.2227 260.437 36.1803 260.678 36.0957V38.0781C260.255 38.2279 259.734 38.3027 259.115 38.3027C258.21 38.3027 257.481 38.0586 256.928 37.5703C256.374 37.0755 256.098 36.3464 256.098 35.3828V30.2754H254.418ZM262.416 24.6602C262.416 24.2174 262.562 23.8496 262.855 23.5566C263.148 23.2637 263.51 23.1172 263.939 23.1172C264.389 23.1172 264.76 23.2637 265.053 23.5566C265.352 23.8431 265.502 24.2109 265.502 24.6602C265.502 25.0964 265.352 25.4577 265.053 25.7441C264.76 26.0241 264.389 26.1641 263.939 26.1641C263.503 26.1641 263.139 26.0241 262.846 25.7441C262.559 25.4577 262.416 25.0964 262.416 24.6602ZM262.816 38V28.3027H265.121V38H262.816ZM267.123 33.1367C267.13 31.6654 267.615 30.4414 268.578 29.4648C269.542 28.4883 270.788 27.9935 272.318 27.9805C273.822 27.9805 275.062 28.472 276.039 29.4551C277.016 30.4316 277.504 31.6589 277.504 33.1367C277.504 34.6081 277.016 35.8385 276.039 36.8281C275.076 37.8112 273.835 38.3027 272.318 38.3027C270.808 38.3027 269.564 37.8112 268.588 36.8281C267.611 35.8385 267.123 34.6081 267.123 33.1367ZM272.318 36.1445C273.1 36.1445 273.757 35.8743 274.291 35.334C274.831 34.7936 275.102 34.0612 275.102 33.1367C275.102 32.2057 274.831 31.4798 274.291 30.959C273.757 30.4251 273.1 30.1582 272.318 30.1582C271.531 30.1582 270.867 30.4251 270.326 30.959C269.786 31.4798 269.516 32.2057 269.516 33.1367C269.516 34.0612 269.786 34.7936 270.326 35.334C270.867 35.8743 271.531 36.1445 272.318 36.1445ZM279.652 38V28.3027H281.918V29.1621C282.706 28.3743 283.646 27.9805 284.74 27.9805C285.365 27.9805 285.945 28.1139 286.479 28.3809C287.012 28.6478 287.455 29.0612 287.807 29.6211C288.158 30.1745 288.334 30.8223 288.334 31.5645V38H286.039V32.1406C286.039 31.5221 285.854 31.0371 285.482 30.6855C285.118 30.321 284.656 30.1387 284.096 30.1387C283.249 30.1387 282.536 30.5195 281.957 31.2812V38H279.652ZM295.717 33.1172C295.717 32.1732 295.899 31.3171 296.264 30.5488C296.635 29.7806 297.172 29.1589 297.875 28.6836C298.585 28.2148 299.398 27.9805 300.316 27.9805C301.469 27.9805 302.449 28.3743 303.256 29.1621V23.498H305.551V38H303.256V37.1211C302.442 37.9089 301.462 38.3027 300.316 38.3027C299.398 38.3027 298.585 38.0684 297.875 37.5996C297.172 37.1309 296.635 36.5059 296.264 35.7246C295.899 34.9434 295.717 34.0742 295.717 33.1172ZM298.109 33.1172C298.109 34.0417 298.354 34.7806 298.842 35.334C299.337 35.8743 299.988 36.1445 300.795 36.1445C301.745 36.1445 302.566 35.6953 303.256 34.7969V31.457C302.592 30.5911 301.771 30.1582 300.795 30.1582C299.988 30.1582 299.337 30.4251 298.842 30.959C298.354 31.4863 298.109 32.2057 298.109 33.1172ZM308.207 34.7188V28.3027H310.512V34.1426C310.512 34.7546 310.697 35.2461 311.068 35.6172C311.439 35.9818 311.898 36.1641 312.445 36.1641C313.298 36.1641 314.011 35.7832 314.584 35.0215V28.3027H316.889V38H314.633V37.1406C313.884 37.9154 312.943 38.3027 311.811 38.3027C310.873 38.3027 310.043 38 309.32 37.3945C308.982 37.0951 308.712 36.7174 308.51 36.2617C308.308 35.7995 308.207 35.2852 308.207 34.7188ZM319.594 38V28.3027H321.859V29.8555C322.113 29.263 322.484 28.804 322.973 28.4785C323.461 28.1465 324.014 27.9805 324.633 27.9805C324.919 27.9805 325.154 28.0065 325.336 28.0586V30.4609C324.906 30.4089 324.587 30.3828 324.379 30.3828C323.754 30.3828 323.217 30.5586 322.768 30.9102C322.318 31.2617 322.029 31.6849 321.898 32.1797V38H319.594ZM326.645 34.9434C326.671 33.9668 327.038 33.2051 327.748 32.6582C328.464 32.1048 329.324 31.8314 330.326 31.8379C331.316 31.8379 332.175 32.0397 332.904 32.4434V31.6035C332.904 31.1478 332.732 30.7702 332.387 30.4707C332.042 30.1712 331.534 30.0215 330.863 30.0215C329.665 30.0215 328.445 30.3958 327.201 31.1445V28.8789C328.406 28.2799 329.675 27.9805 331.01 27.9805C331.967 27.9805 332.755 28.1432 333.373 28.4688C333.992 28.7943 334.451 29.224 334.75 29.7578C335.056 30.2852 335.209 30.8646 335.209 31.4961V38H333.021V37.2773C332.292 37.9609 331.374 38.3027 330.268 38.3027C329.193 38.3027 328.321 38.0065 327.65 37.4141C326.98 36.8086 326.645 35.985 326.645 34.9434ZM328.969 34.9043C328.969 35.3796 329.141 35.7572 329.486 36.0371C329.838 36.3171 330.277 36.457 330.805 36.457C331.247 36.457 331.654 36.3724 332.025 36.2031C332.41 36.0339 332.702 35.8451 332.904 35.6367V34.1621C332.696 33.9863 332.4 33.8333 332.016 33.7031C331.638 33.5664 331.234 33.498 330.805 33.498C330.29 33.498 329.854 33.625 329.496 33.8789C329.145 34.1328 328.969 34.4746 328.969 34.9043ZM336.625 30.2754V28.3027H338.422V25.5586L340.6 24.5625V28.3027H342.885V30.2754H340.6V34.9238C340.6 35.7897 341.075 36.2227 342.025 36.2227C342.357 36.2227 342.644 36.1803 342.885 36.0957V38.0781C342.462 38.2279 341.941 38.3027 341.322 38.3027C340.417 38.3027 339.688 38.0586 339.135 37.5703C338.581 37.0755 338.305 36.3464 338.305 35.3828V30.2754H336.625ZM344.623 24.6602C344.623 24.2174 344.77 23.8496 345.062 23.5566C345.355 23.2637 345.717 23.1172 346.146 23.1172C346.596 23.1172 346.967 23.2637 347.26 23.5566C347.559 23.8431 347.709 24.2109 347.709 24.6602C347.709 25.0964 347.559 25.4577 347.26 25.7441C346.967 26.0241 346.596 26.1641 346.146 26.1641C345.71 26.1641 345.346 26.0241 345.053 25.7441C344.766 25.4577 344.623 25.0964 344.623 24.6602ZM345.023 38V28.3027H347.328V38H345.023ZM349.33 33.1367C349.337 31.6654 349.822 30.4414 350.785 29.4648C351.749 28.4883 352.995 27.9935 354.525 27.9805C356.029 27.9805 357.27 28.472 358.246 29.4551C359.223 30.4316 359.711 31.6589 359.711 33.1367C359.711 34.6081 359.223 35.8385 358.246 36.8281C357.283 37.8112 356.042 38.3027 354.525 38.3027C353.015 38.3027 351.771 37.8112 350.795 36.8281C349.818 35.8385 349.33 34.6081 349.33 33.1367ZM354.525 36.1445C355.307 36.1445 355.964 35.8743 356.498 35.334C357.038 34.7936 357.309 34.0612 357.309 33.1367C357.309 32.2057 357.038 31.4798 356.498 30.959C355.964 30.4251 355.307 30.1582 354.525 30.1582C353.738 30.1582 353.074 30.4251 352.533 30.959C351.993 31.4798 351.723 32.2057 351.723 33.1367C351.723 34.0612 351.993 34.7936 352.533 35.334C353.074 35.8743 353.738 36.1445 354.525 36.1445ZM361.859 38V28.3027H364.125V29.1621C364.913 28.3743 365.854 27.9805 366.947 27.9805C367.572 27.9805 368.152 28.1139 368.686 28.3809C369.219 28.6478 369.662 29.0612 370.014 29.6211C370.365 30.1745 370.541 30.8223 370.541 31.5645V38H368.246V32.1406C368.246 31.5221 368.061 31.0371 367.689 30.6855C367.325 30.321 366.863 30.1387 366.303 30.1387C365.456 30.1387 364.743 30.5195 364.164 31.2812V38H361.859Z" fill="black"/>
<path d="M2.08154 94.501C2.08149 34.001 89.0069 34.001 171.746 34.001" stroke="black" stroke-width="3"/>
<path d="M565.665 95C572.292 34 452.007 34 396 34" stroke="black" stroke-width="3"/>
<path d="M376.654 388.242V385.996H388.207V388.242H383.646V400H381.215V388.242H376.654ZM389.857 386.66C389.857 386.217 390.004 385.85 390.297 385.557C390.59 385.264 390.951 385.117 391.381 385.117C391.83 385.117 392.201 385.264 392.494 385.557C392.794 385.843 392.943 386.211 392.943 386.66C392.943 387.096 392.794 387.458 392.494 387.744C392.201 388.024 391.83 388.164 391.381 388.164C390.945 388.164 390.58 388.024 390.287 387.744C390.001 387.458 389.857 387.096 389.857 386.66ZM390.258 400V390.303H392.562V400H390.258ZM395.316 400V390.303H397.582V391.162C398.298 390.374 399.216 389.98 400.336 389.98C400.902 389.98 401.426 390.098 401.908 390.332C402.39 390.566 402.787 390.908 403.1 391.357C403.959 390.439 405.027 389.98 406.303 389.98C406.928 389.98 407.501 390.114 408.021 390.381C408.542 390.648 408.972 391.058 409.311 391.611C409.649 392.158 409.818 392.809 409.818 393.564V400H407.523V394.141C407.523 393.516 407.364 393.027 407.045 392.676C406.726 392.318 406.296 392.139 405.756 392.139C404.949 392.139 404.262 392.5 403.695 393.223C403.715 393.34 403.725 393.454 403.725 393.564V400H401.439V394.141C401.439 393.516 401.283 393.027 400.971 392.676C400.658 392.318 400.235 392.139 399.701 392.139C398.894 392.139 398.201 392.52 397.621 393.281V400H395.316ZM411.732 395.098C411.732 394.349 411.859 393.656 412.113 393.018C412.367 392.373 412.715 391.829 413.158 391.387C414.128 390.449 415.271 389.98 416.586 389.98C418.083 389.98 419.255 390.459 420.102 391.416C420.961 392.367 421.391 393.613 421.391 395.156C421.391 395.469 421.378 395.716 421.352 395.898H414.145C414.184 396.608 414.47 397.188 415.004 397.637C415.544 398.079 416.179 398.301 416.908 398.301C417.644 398.301 418.308 398.2 418.9 397.998C419.506 397.79 420.134 397.451 420.785 396.982V399.082C419.646 399.896 418.308 400.303 416.771 400.303C415.84 400.303 415.001 400.111 414.252 399.727C413.503 399.336 412.895 398.74 412.426 397.939C411.964 397.139 411.732 396.191 411.732 395.098ZM414.213 394.18H418.988C418.969 393.542 418.747 393.018 418.324 392.607C417.908 392.191 417.328 391.982 416.586 391.982C415.922 391.982 415.368 392.201 414.926 392.637C414.49 393.073 414.252 393.587 414.213 394.18Z" fill="black"/>
</svg>
