<svg width="801" height="405" viewBox="0 0 801 405" fill="none" xmlns="http://www.w3.org/2000/svg">
<rect x="567" y="369" width="233" height="20" fill="url(#paint0_linear)"/>
<path d="M629.305 243.74H629.265C629.239 243.873 629.105 244.407 628.865 245.34C628.639 246.273 628.492 246.887 628.425 247.18C628.359 247.46 628.299 247.687 628.245 247.86C628.205 248.033 628.159 248.233 628.105 248.46C628.052 248.673 627.999 248.847 627.945 248.98C627.905 249.1 627.865 249.22 627.825 249.34C627.745 249.567 627.665 249.68 627.585 249.68C627.412 249.68 627.185 249.493 626.905 249.12C626.625 248.733 626.485 248.42 626.485 248.18C626.485 247.94 626.865 246.273 627.625 243.18C628.399 240.087 628.799 238.027 628.825 237C628.825 236.8 628.872 236.64 628.965 236.52C629.099 236.24 629.492 236.04 630.145 235.92C630.812 235.8 631.779 235.74 633.045 235.74C634.325 235.74 635.325 235.807 636.045 235.94C636.779 236.073 637.145 236.26 637.145 236.5C637.145 236.66 637.032 236.773 636.805 236.84C636.579 236.907 636.379 236.96 636.205 237C636.032 237.027 635.805 237.06 635.525 237.1C635.245 237.127 634.985 237.153 634.745 237.18C634.505 237.193 634.192 237.22 633.805 237.26C633.432 237.3 633.085 237.34 632.765 237.38C632.445 237.407 632.012 237.453 631.465 237.52C630.919 237.587 630.565 237.627 630.405 237.64C630.419 237.68 630.425 237.74 630.425 237.82C630.425 238.447 630.165 239.887 629.645 242.14C630.472 242.18 631.359 242.16 632.305 242.08C633.265 242 633.852 241.96 634.065 241.96C634.572 241.96 634.825 242.067 634.825 242.28C634.825 242.693 634.245 243.04 633.085 243.32C631.939 243.6 630.679 243.74 629.305 243.74ZM639.014 236.94C639.014 236.673 639.121 236.42 639.334 236.18C639.547 235.94 639.761 235.82 639.974 235.82C640.201 235.82 640.467 236.093 640.774 236.64C641.081 237.173 641.234 237.62 641.234 237.98C641.234 238.113 641.174 238.233 641.054 238.34C640.934 238.447 640.807 238.5 640.674 238.5C640.354 238.5 639.994 238.307 639.594 237.92C639.207 237.533 639.014 237.207 639.014 236.94ZM638.914 239.78C639.167 239.78 639.407 239.933 639.634 240.24C639.861 240.547 639.974 240.847 639.974 241.14C639.974 241.433 639.781 242.313 639.394 243.78C639.007 245.233 638.521 246.867 637.934 248.68C637.707 249.347 637.421 249.68 637.074 249.68C636.887 249.68 636.727 249.607 636.594 249.46C636.461 249.3 636.394 249.127 636.394 248.94C636.394 248.74 636.441 248.433 636.534 248.02C636.641 247.593 636.787 247.033 636.974 246.34C637.174 245.633 637.327 245.06 637.434 244.62C637.554 244.18 637.674 243.687 637.794 243.14C637.914 242.58 638.007 242.133 638.074 241.8C638.154 241.453 638.241 241.107 638.334 240.76C638.521 240.107 638.714 239.78 638.914 239.78ZM643.18 246.22C644.46 244.047 645.5 242.433 646.3 241.38C647.113 240.313 647.773 239.78 648.28 239.78C648.8 239.78 649.286 240.053 649.74 240.6C650.206 241.147 650.44 241.727 650.44 242.34C650.44 243.3 650.22 244.473 649.78 245.86C648.98 248.42 648.26 249.7 647.62 249.7C647.326 249.7 647.18 249.5 647.18 249.1C647.18 248.82 647.32 248.253 647.6 247.4C647.893 246.533 648.16 245.687 648.4 244.86C648.653 244.02 648.78 243.393 648.78 242.98C648.78 242.553 648.713 242.24 648.58 242.04C648.46 241.84 648.333 241.74 648.2 241.74C648.08 241.74 647.953 241.78 647.82 241.86C647.686 241.94 647.533 242.073 647.36 242.26C647.2 242.447 647.046 242.633 646.9 242.82C646.753 242.993 646.566 243.247 646.34 243.58C646.126 243.913 645.946 244.2 645.8 244.44C645.653 244.667 645.44 245 645.16 245.44C644.88 245.88 644.666 246.213 644.52 246.44C644.373 246.667 644.18 246.973 643.94 247.36C643.7 247.747 643.506 248.047 643.36 248.26C643.226 248.473 643.073 248.707 642.9 248.96C642.566 249.453 642.3 249.7 642.1 249.7C641.913 249.7 641.693 249.553 641.44 249.26C641.186 248.953 641.06 248.687 641.06 248.46C641.06 248.393 641.106 248.213 641.2 247.92C641.453 247.147 641.733 246.193 642.04 245.06C642.346 243.913 642.513 242.613 642.54 241.16C642.58 240.187 642.72 239.7 642.96 239.7C643.253 239.7 643.546 239.853 643.84 240.16C644.133 240.467 644.28 240.807 644.28 241.18C644.28 241.54 644.166 242.247 643.94 243.3C643.726 244.34 643.473 245.313 643.18 246.22ZM657.204 239.78C657.804 239.78 658.357 240.087 658.864 240.7C659.37 241.3 659.624 241.847 659.624 242.34C659.624 242.82 659.457 243.313 659.124 243.82C659.284 244.02 659.364 244.193 659.364 244.34C659.364 244.713 659.277 245.353 659.104 246.26C658.944 247.167 658.844 247.76 658.804 248.04C658.777 248.32 658.75 248.547 658.724 248.72C658.697 248.88 658.664 249.04 658.624 249.2C658.57 249.533 658.45 249.7 658.264 249.7C658.024 249.7 657.824 249.493 657.664 249.08C657.517 248.653 657.43 248.107 657.404 247.44C656.217 248.947 655.117 249.7 654.104 249.7C653.49 249.7 652.884 249.44 652.284 248.92C651.697 248.387 651.404 247.84 651.404 247.28C651.404 246.48 651.697 245.493 652.284 244.32C652.87 243.133 653.63 242.08 654.564 241.16C655.497 240.24 656.377 239.78 657.204 239.78ZM658.124 243.3C658.124 242.06 657.877 241.44 657.384 241.44C656.864 241.44 656.257 241.813 655.564 242.56C654.87 243.293 654.284 244.127 653.804 245.06C653.324 245.993 653.084 246.733 653.084 247.28C653.084 247.507 653.177 247.693 653.364 247.84C653.55 247.973 653.77 248.04 654.024 248.04C654.65 248.04 655.357 247.62 656.144 246.78C656.93 245.927 657.477 244.893 657.784 243.68C657.824 243.48 657.937 243.36 658.124 243.32V243.3ZM665.199 235.86C665.199 238.367 664.679 241.62 663.639 245.62C662.972 248.34 662.505 249.7 662.239 249.7C662.052 249.7 661.832 249.553 661.579 249.26C661.339 248.967 661.219 248.74 661.219 248.58C661.219 248.42 661.412 247.593 661.799 246.1C662.185 244.607 662.572 242.773 662.959 240.6C663.345 238.413 663.539 236.447 663.539 234.7C663.539 234.513 663.565 234.38 663.619 234.3C663.672 234.22 663.785 234.18 663.959 234.18C664.132 234.18 664.379 234.373 664.699 234.76C665.032 235.133 665.199 235.5 665.199 235.86ZM681.088 239.78C681.315 239.78 681.535 239.867 681.748 240.04C681.962 240.2 682.068 240.38 682.068 240.58C682.068 240.94 681.582 242.187 680.608 244.32C679.648 246.453 678.962 247.893 678.548 248.64C678.148 249.373 677.795 249.74 677.488 249.74C677.315 249.74 677.102 249.613 676.848 249.36C676.595 249.107 676.408 248.833 676.288 248.54C675.928 247.7 675.542 246.347 675.128 244.48C674.715 242.613 674.508 241.247 674.508 240.38C674.508 239.98 674.628 239.78 674.868 239.78C675.162 239.78 675.462 239.907 675.768 240.16C676.075 240.4 676.288 240.707 676.408 241.08C676.448 241.293 676.502 241.827 676.568 242.68C676.755 244.787 677.075 246.407 677.528 247.54C677.888 246.767 678.348 245.673 678.908 244.26C679.468 242.833 679.922 241.733 680.268 240.96C680.628 240.173 680.902 239.78 681.088 239.78ZM687.946 239.78C688.546 239.78 689.099 240.087 689.606 240.7C690.113 241.3 690.366 241.847 690.366 242.34C690.366 242.82 690.199 243.313 689.866 243.82C690.026 244.02 690.106 244.193 690.106 244.34C690.106 244.713 690.019 245.353 689.846 246.26C689.686 247.167 689.586 247.76 689.546 248.04C689.519 248.32 689.493 248.547 689.466 248.72C689.439 248.88 689.406 249.04 689.366 249.2C689.313 249.533 689.193 249.7 689.006 249.7C688.766 249.7 688.566 249.493 688.406 249.08C688.259 248.653 688.173 248.107 688.146 247.44C686.959 248.947 685.859 249.7 684.846 249.7C684.233 249.7 683.626 249.44 683.026 248.92C682.439 248.387 682.146 247.84 682.146 247.28C682.146 246.48 682.439 245.493 683.026 244.32C683.613 243.133 684.373 242.08 685.306 241.16C686.239 240.24 687.119 239.78 687.946 239.78ZM688.866 243.3C688.866 242.06 688.619 241.44 688.126 241.44C687.606 241.44 686.999 241.813 686.306 242.56C685.613 243.293 685.026 244.127 684.546 245.06C684.066 245.993 683.826 246.733 683.826 247.28C683.826 247.507 683.919 247.693 684.106 247.84C684.293 247.973 684.513 248.04 684.766 248.04C685.393 248.04 686.099 247.62 686.886 246.78C687.673 245.927 688.219 244.893 688.526 243.68C688.566 243.48 688.679 243.36 688.866 243.32V243.3ZM695.941 235.86C695.941 238.367 695.421 241.62 694.381 245.62C693.714 248.34 693.248 249.7 692.981 249.7C692.794 249.7 692.574 249.553 692.321 249.26C692.081 248.967 691.961 248.74 691.961 248.58C691.961 248.42 692.154 247.593 692.541 246.1C692.928 244.607 693.314 242.773 693.701 240.6C694.088 238.413 694.281 236.447 694.281 234.7C694.281 234.513 694.308 234.38 694.361 234.3C694.414 234.22 694.528 234.18 694.701 234.18C694.874 234.18 695.121 234.373 695.441 234.76C695.774 235.133 695.941 235.5 695.941 235.86ZM703.983 240.34C704.037 240.127 704.09 239.98 704.143 239.9C704.197 239.82 704.31 239.78 704.483 239.78C704.67 239.78 704.89 239.953 705.143 240.3C705.41 240.647 705.543 240.98 705.543 241.3C705.543 241.473 705.25 242.5 704.663 244.38C704.077 246.26 703.623 247.753 703.303 248.86C703.143 249.42 702.917 249.7 702.623 249.7C702.45 249.7 702.303 249.627 702.183 249.48C702.063 249.333 702.003 249.067 702.003 248.68C702.003 248.293 702.157 247.593 702.463 246.58C701.903 247.487 701.297 248.233 700.643 248.82C699.99 249.407 699.39 249.7 698.843 249.7C698.31 249.7 697.803 249.447 697.323 248.94C696.843 248.433 696.603 247.913 696.603 247.38C696.603 246.113 696.97 244.533 697.703 242.64C698.45 240.733 699.07 239.78 699.563 239.78C699.803 239.78 700.01 239.893 700.183 240.12C700.37 240.333 700.463 240.58 700.463 240.86C700.463 240.98 700.283 241.413 699.923 242.16C699.563 242.893 699.203 243.76 698.843 244.76C698.483 245.747 698.303 246.613 698.303 247.36C698.303 247.573 698.37 247.753 698.503 247.9C698.637 248.033 698.797 248.1 698.983 248.1C699.49 248.1 700.09 247.653 700.783 246.76C701.49 245.867 702.13 244.827 702.703 243.64C703.277 242.453 703.703 241.353 703.983 240.34ZM714.512 243.1C714.512 243.807 714.125 244.387 713.352 244.84C712.592 245.28 711.725 245.5 710.752 245.5C709.792 245.5 708.919 245.393 708.132 245.18C707.945 245.767 707.852 246.293 707.852 246.76C707.852 247.213 707.992 247.567 708.272 247.82C708.565 248.073 709.039 248.2 709.692 248.2C710.359 248.2 711.039 248.087 711.732 247.86C712.439 247.62 712.825 247.5 712.892 247.5C713.239 247.5 713.412 247.633 713.412 247.9C713.412 248.26 713.005 248.653 712.192 249.08C711.379 249.493 710.585 249.7 709.812 249.7C708.772 249.7 707.925 249.393 707.272 248.78C706.619 248.153 706.292 247.367 706.292 246.42C706.292 245.473 706.545 244.487 707.052 243.46C707.559 242.42 708.212 241.547 709.012 240.84C709.812 240.133 710.605 239.78 711.392 239.78C712.179 239.78 712.892 240.153 713.532 240.9C714.185 241.647 714.512 242.38 714.512 243.1ZM711.492 241.36C710.999 241.36 710.485 241.62 709.952 242.14C709.419 242.647 708.965 243.28 708.592 244.04C709.125 244.16 709.732 244.22 710.412 244.22C711.092 244.22 711.685 244.113 712.192 243.9C712.699 243.673 712.952 243.38 712.952 243.02C712.952 242.66 712.785 242.293 712.452 241.92C712.132 241.547 711.812 241.36 711.492 241.36ZM730.103 239.72C730.677 239.72 731.17 240.087 731.583 240.82C732.01 241.553 732.223 242.313 732.223 243.1C732.223 243.873 731.997 244.653 731.543 245.44C731.09 246.213 730.53 246.907 729.863 247.52C729.197 248.133 728.457 248.647 727.643 249.06C726.843 249.46 726.103 249.66 725.423 249.66C725.157 249.66 724.903 249.627 724.663 249.56C724.61 249.787 724.517 250.193 724.383 250.78C724.25 251.367 724.137 251.853 724.043 252.24C723.95 252.627 723.843 253.04 723.723 253.48C723.483 254.387 723.27 254.84 723.083 254.84C722.897 254.84 722.703 254.693 722.503 254.4C722.29 254.12 722.183 253.867 722.183 253.64C722.183 253.413 722.397 252.44 722.823 250.72C724.103 245.533 724.743 242.04 724.743 240.24C724.743 239.84 724.89 239.64 725.183 239.64C725.423 239.64 725.71 239.82 726.043 240.18C726.39 240.527 726.563 240.913 726.563 241.34C726.563 241.553 726.537 241.787 726.483 242.04C727.67 240.493 728.877 239.72 730.103 239.72ZM725.223 248.1C725.93 248.1 726.69 247.86 727.503 247.38C728.33 246.9 729.03 246.267 729.603 245.48C730.19 244.68 730.483 243.887 730.483 243.1C730.483 241.993 730.223 241.44 729.703 241.44C729.183 241.44 728.477 241.887 727.583 242.78C726.703 243.673 726.003 244.833 725.483 246.26L725.023 248.1H725.223ZM741.094 243.1C741.094 243.807 740.707 244.387 739.934 244.84C739.174 245.28 738.307 245.5 737.334 245.5C736.374 245.5 735.501 245.393 734.714 245.18C734.527 245.767 734.434 246.293 734.434 246.76C734.434 247.213 734.574 247.567 734.854 247.82C735.147 248.073 735.621 248.2 736.274 248.2C736.941 248.2 737.621 248.087 738.314 247.86C739.021 247.62 739.407 247.5 739.474 247.5C739.821 247.5 739.994 247.633 739.994 247.9C739.994 248.26 739.587 248.653 738.774 249.08C737.961 249.493 737.167 249.7 736.394 249.7C735.354 249.7 734.507 249.393 733.854 248.78C733.201 248.153 732.874 247.367 732.874 246.42C732.874 245.473 733.127 244.487 733.634 243.46C734.141 242.42 734.794 241.547 735.594 240.84C736.394 240.133 737.187 239.78 737.974 239.78C738.761 239.78 739.474 240.153 740.114 240.9C740.767 241.647 741.094 242.38 741.094 243.1ZM738.074 241.36C737.581 241.36 737.067 241.62 736.534 242.14C736.001 242.647 735.547 243.28 735.174 244.04C735.707 244.16 736.314 244.22 736.994 244.22C737.674 244.22 738.267 244.113 738.774 243.9C739.281 243.673 739.534 243.38 739.534 243.02C739.534 242.66 739.367 242.293 739.034 241.92C738.714 241.547 738.394 241.36 738.074 241.36ZM743.318 242.22L743.258 240.72C743.258 240.093 743.405 239.78 743.698 239.78C743.951 239.78 744.191 239.947 744.418 240.28C744.658 240.6 744.778 240.987 744.778 241.44C744.778 241.88 744.765 242.213 744.738 242.44C745.898 240.68 746.998 239.8 748.038 239.8C748.691 239.8 749.018 239.96 749.018 240.28C749.018 240.44 748.945 240.587 748.798 240.72C748.651 240.853 748.418 241.007 748.098 241.18C747.391 241.487 746.791 241.96 746.298 242.6C745.818 243.227 745.425 243.94 745.118 244.74C744.811 245.54 744.565 246.213 744.378 246.76C744.205 247.307 744.071 247.733 743.978 248.04C743.885 248.347 743.778 248.647 743.658 248.94C743.445 249.473 743.198 249.74 742.918 249.74C742.691 249.74 742.505 249.613 742.358 249.36C742.225 249.093 742.158 248.84 742.158 248.6C742.158 248.347 742.271 247.853 742.498 247.12C743.045 245.44 743.318 243.807 743.318 242.22ZM754.459 239.78C754.912 239.78 755.339 240.033 755.739 240.54C756.139 241.033 756.339 241.467 756.339 241.84C756.339 242.067 756.232 242.18 756.019 242.18C755.872 242.18 755.646 242.067 755.339 241.84C755.032 241.6 754.719 241.48 754.399 241.48C754.079 241.48 753.572 241.667 752.879 242.04C752.199 242.413 751.859 242.807 751.859 243.22C751.859 243.527 752.472 244.053 753.699 244.8C754.166 245.093 754.586 245.473 754.959 245.94C755.346 246.393 755.539 246.887 755.539 247.42C755.539 247.94 755.172 248.453 754.439 248.96C753.719 249.453 752.872 249.7 751.899 249.7C750.939 249.7 750.086 249.467 749.339 249C748.606 248.533 748.239 248.093 748.239 247.68C748.239 247.507 748.279 247.373 748.359 247.28C748.452 247.173 748.566 247.12 748.699 247.12C748.832 247.12 749.019 247.207 749.259 247.38C749.979 247.9 750.726 248.16 751.499 248.16C752.286 248.16 752.852 248.073 753.199 247.9C753.546 247.713 753.719 247.473 753.719 247.18C753.719 246.873 753.526 246.553 753.139 246.22C752.752 245.873 752.326 245.567 751.859 245.3C751.406 245.033 750.986 244.707 750.599 244.32C750.212 243.933 750.019 243.54 750.019 243.14C750.019 242.433 750.572 241.7 751.679 240.94C752.799 240.167 753.726 239.78 754.459 239.78ZM759.815 236.94C759.815 236.673 759.921 236.42 760.135 236.18C760.348 235.94 760.561 235.82 760.775 235.82C761.001 235.82 761.268 236.093 761.575 236.64C761.881 237.173 762.035 237.62 762.035 237.98C762.035 238.113 761.975 238.233 761.855 238.34C761.735 238.447 761.608 238.5 761.475 238.5C761.155 238.5 760.795 238.307 760.395 237.92C760.008 237.533 759.815 237.207 759.815 236.94ZM759.715 239.78C759.968 239.78 760.208 239.933 760.435 240.24C760.661 240.547 760.775 240.847 760.775 241.14C760.775 241.433 760.581 242.313 760.195 243.78C759.808 245.233 759.321 246.867 758.735 248.68C758.508 249.347 758.221 249.68 757.875 249.68C757.688 249.68 757.528 249.607 757.395 249.46C757.261 249.3 757.195 249.127 757.195 248.94C757.195 248.74 757.241 248.433 757.335 248.02C757.441 247.593 757.588 247.033 757.775 246.34C757.975 245.633 758.128 245.06 758.235 244.62C758.355 244.18 758.475 243.687 758.595 243.14C758.715 242.58 758.808 242.133 758.875 241.8C758.955 241.453 759.041 241.107 759.135 240.76C759.321 240.107 759.515 239.78 759.715 239.78ZM767.74 239.78C768.194 239.78 768.62 240.033 769.02 240.54C769.42 241.033 769.62 241.467 769.62 241.84C769.62 242.067 769.514 242.18 769.3 242.18C769.154 242.18 768.927 242.067 768.62 241.84C768.314 241.6 768 241.48 767.68 241.48C767.36 241.48 766.854 241.667 766.16 242.04C765.48 242.413 765.14 242.807 765.14 243.22C765.14 243.527 765.754 244.053 766.98 244.8C767.447 245.093 767.867 245.473 768.24 245.94C768.627 246.393 768.82 246.887 768.82 247.42C768.82 247.94 768.454 248.453 767.72 248.96C767 249.453 766.154 249.7 765.18 249.7C764.22 249.7 763.367 249.467 762.62 249C761.887 248.533 761.52 248.093 761.52 247.68C761.52 247.507 761.56 247.373 761.64 247.28C761.734 247.173 761.847 247.12 761.98 247.12C762.114 247.12 762.3 247.207 762.54 247.38C763.26 247.9 764.007 248.16 764.78 248.16C765.567 248.16 766.134 248.073 766.48 247.9C766.827 247.713 767 247.473 767 247.18C767 246.873 766.807 246.553 766.42 246.22C766.034 245.873 765.607 245.567 765.14 245.3C764.687 245.033 764.267 244.707 763.88 244.32C763.494 243.933 763.3 243.54 763.3 243.14C763.3 242.433 763.854 241.7 764.96 240.94C766.08 240.167 767.007 239.78 767.74 239.78ZM772.776 247.7C772.776 247.953 772.923 248.08 773.216 248.08C773.723 248.08 774.336 247.94 775.056 247.66C775.789 247.367 776.196 247.22 776.276 247.22C776.516 247.22 776.636 247.347 776.636 247.6C776.636 247.987 776.236 248.433 775.436 248.94C774.649 249.447 773.929 249.7 773.276 249.7C772.636 249.7 772.103 249.527 771.676 249.18C771.249 248.82 771.036 248.453 771.036 248.08C771.036 247.707 771.116 247.233 771.276 246.66C771.436 246.073 771.663 245.307 771.956 244.36C772.263 243.4 772.503 242.607 772.676 241.98C772.049 242.127 771.629 242.2 771.416 242.2C771.203 242.2 770.989 242.093 770.776 241.88C770.576 241.653 770.476 241.44 770.476 241.24C770.476 240.92 771.343 240.613 773.076 240.32C773.316 239.213 773.436 238.233 773.436 237.38C773.436 236.98 773.569 236.78 773.836 236.78C774.063 236.78 774.343 236.927 774.676 237.22C775.009 237.5 775.176 237.82 775.176 238.18C775.176 238.54 775.063 239.173 774.836 240.08C775.596 240.013 776.203 239.98 776.656 239.98C777.456 239.98 777.856 240.153 777.856 240.5C777.856 240.7 777.636 240.867 777.196 241C776.769 241.133 775.863 241.34 774.476 241.62C774.196 242.673 773.843 243.88 773.416 245.24C772.989 246.587 772.776 247.407 772.776 247.7ZM786.25 243.1C786.25 243.807 785.864 244.387 785.09 244.84C784.33 245.28 783.464 245.5 782.49 245.5C781.53 245.5 780.657 245.393 779.87 245.18C779.684 245.767 779.59 246.293 779.59 246.76C779.59 247.213 779.73 247.567 780.01 247.82C780.304 248.073 780.777 248.2 781.43 248.2C782.097 248.2 782.777 248.087 783.47 247.86C784.177 247.62 784.564 247.5 784.63 247.5C784.977 247.5 785.15 247.633 785.15 247.9C785.15 248.26 784.744 248.653 783.93 249.08C783.117 249.493 782.324 249.7 781.55 249.7C780.51 249.7 779.664 249.393 779.01 248.78C778.357 248.153 778.03 247.367 778.03 246.42C778.03 245.473 778.284 244.487 778.79 243.46C779.297 242.42 779.95 241.547 780.75 240.84C781.55 240.133 782.344 239.78 783.13 239.78C783.917 239.78 784.63 240.153 785.27 240.9C785.924 241.647 786.25 242.38 786.25 243.1ZM783.23 241.36C782.737 241.36 782.224 241.62 781.69 242.14C781.157 242.647 780.704 243.28 780.33 244.04C780.864 244.16 781.47 244.22 782.15 244.22C782.83 244.22 783.424 244.113 783.93 243.9C784.437 243.673 784.69 243.38 784.69 243.02C784.69 242.66 784.524 242.293 784.19 241.92C783.87 241.547 783.55 241.36 783.23 241.36ZM795.834 234.18C796.048 234.18 796.308 234.38 796.614 234.78C796.934 235.167 797.094 235.533 797.094 235.88C797.094 236.227 796.928 237.213 796.594 238.84C796.261 240.453 795.874 242.127 795.434 243.86C794.474 247.753 793.841 249.7 793.534 249.7C793.348 249.7 793.141 249.587 792.914 249.36C792.701 249.12 792.594 248.913 792.594 248.74C792.594 248.567 792.641 248.22 792.734 247.7C791.428 249.033 790.288 249.7 789.314 249.7C788.728 249.7 788.194 249.433 787.714 248.9C787.248 248.367 787.014 247.813 787.014 247.24C787.014 246.413 787.234 245.433 787.674 244.3C788.128 243.153 788.774 242.113 789.614 241.18C790.454 240.247 791.348 239.78 792.294 239.78C793.241 239.78 793.901 240.347 794.274 241.48C794.954 238.653 795.328 236.42 795.394 234.78C795.394 234.38 795.541 234.18 795.834 234.18ZM793.634 244C793.634 243.28 793.508 242.673 793.254 242.18C793.014 241.687 792.721 241.44 792.374 241.44C791.801 241.44 791.214 241.793 790.614 242.5C790.014 243.207 789.534 244.02 789.174 244.94C788.828 245.847 788.654 246.633 788.654 247.3C788.654 247.54 788.741 247.733 788.914 247.88C789.088 248.027 789.294 248.1 789.534 248.1C790.054 248.1 790.754 247.727 791.634 246.98C792.528 246.233 793.174 245.353 793.574 244.34L793.634 244.1V244ZM654.501 264.3C654.501 264.833 654.268 265.44 653.801 266.12C653.441 266.933 653.054 268.107 652.641 269.64C652.228 271.16 651.881 272.247 651.601 272.9C651.041 274.26 650.181 274.94 649.021 274.94C648.074 274.94 647.274 274.68 646.621 274.16C645.981 273.653 645.661 273.147 645.661 272.64C645.661 272.427 645.728 272.213 645.861 272C645.981 271.787 646.108 271.68 646.241 271.68C646.388 271.68 646.548 271.78 646.721 271.98C646.894 272.18 647.054 272.393 647.201 272.62C647.361 272.86 647.594 273.08 647.901 273.28C648.221 273.48 648.528 273.58 648.821 273.58C649.114 273.58 649.334 273.533 649.481 273.44C649.628 273.36 649.768 273.22 649.901 273.02C650.034 272.833 650.148 272.64 650.241 272.44C650.334 272.253 650.434 271.98 650.541 271.62C650.661 271.273 650.754 270.973 650.821 270.72C650.888 270.467 650.981 270.113 651.101 269.66C651.221 269.193 651.321 268.82 651.401 268.54C650.361 269.313 649.514 269.7 648.861 269.7C648.208 269.7 647.641 269.44 647.161 268.92C646.681 268.387 646.441 267.773 646.441 267.08C646.441 266.373 646.701 265.44 647.221 264.28C647.754 263.12 648.468 262.08 649.361 261.16C650.254 260.24 651.128 259.78 651.981 259.78C652.528 259.78 652.988 259.987 653.361 260.4C653.974 261.08 654.281 262.047 654.281 263.3C654.281 263.46 654.274 263.573 654.261 263.64C654.421 263.867 654.501 264.087 654.501 264.3ZM648.061 267.28C648.061 267.507 648.134 267.693 648.281 267.84C648.428 267.973 648.614 268.04 648.841 268.04C649.508 268.04 650.294 267.647 651.201 266.86C652.108 266.06 652.748 265.133 653.121 264.08C653.068 263.907 653.021 263.64 652.981 263.28C652.941 262.92 652.901 262.633 652.861 262.42C652.821 262.207 652.734 261.993 652.601 261.78C652.468 261.553 652.294 261.44 652.081 261.44C651.561 261.44 650.974 261.813 650.321 262.56C649.668 263.307 649.128 264.14 648.701 265.06C648.274 265.98 648.061 266.72 648.061 267.28ZM662.113 263.18C662.113 262.727 662.04 262.3 661.893 261.9C661.746 261.487 661.533 261.187 661.253 261C660.333 261.253 659.54 261.967 658.873 263.14C658.22 264.3 657.893 265.393 657.893 266.42C657.893 267.447 658.146 268.087 658.653 268.34C659.613 268.153 660.426 267.5 661.093 266.38C661.773 265.247 662.113 264.18 662.113 263.18ZM656.853 263.36C657.32 262.32 657.926 261.467 658.673 260.8C659.433 260.12 660.206 259.78 660.993 259.78C661.793 259.78 662.46 260.12 662.993 260.8C663.526 261.467 663.793 262.287 663.793 263.26C663.793 264.22 663.56 265.207 663.093 266.22C662.626 267.22 661.98 268.053 661.153 268.72C660.34 269.373 659.473 269.7 658.553 269.7C657.873 269.7 657.306 269.387 656.853 268.76C656.4 268.133 656.173 267.34 656.173 266.38C656.173 265.407 656.4 264.4 656.853 263.36ZM667.696 256.94C667.696 256.673 667.802 256.42 668.016 256.18C668.229 255.94 668.442 255.82 668.656 255.82C668.882 255.82 669.149 256.093 669.456 256.64C669.762 257.173 669.916 257.62 669.916 257.98C669.916 258.113 669.856 258.233 669.736 258.34C669.616 258.447 669.489 258.5 669.356 258.5C669.036 258.5 668.676 258.307 668.276 257.92C667.889 257.533 667.696 257.207 667.696 256.94ZM667.596 259.78C667.849 259.78 668.089 259.933 668.316 260.24C668.542 260.547 668.656 260.847 668.656 261.14C668.656 261.433 668.462 262.313 668.076 263.78C667.689 265.233 667.202 266.867 666.616 268.68C666.389 269.347 666.102 269.68 665.756 269.68C665.569 269.68 665.409 269.607 665.276 269.46C665.142 269.3 665.076 269.127 665.076 268.94C665.076 268.74 665.122 268.433 665.216 268.02C665.322 267.593 665.469 267.033 665.656 266.34C665.856 265.633 666.009 265.06 666.116 264.62C666.236 264.18 666.356 263.687 666.476 263.14C666.596 262.58 666.689 262.133 666.756 261.8C666.836 261.453 666.922 261.107 667.016 260.76C667.202 260.107 667.396 259.78 667.596 259.78ZM671.861 266.22C673.141 264.047 674.181 262.433 674.981 261.38C675.795 260.313 676.455 259.78 676.961 259.78C677.481 259.78 677.968 260.053 678.421 260.6C678.888 261.147 679.121 261.727 679.121 262.34C679.121 263.3 678.901 264.473 678.461 265.86C677.661 268.42 676.941 269.7 676.301 269.7C676.008 269.7 675.861 269.5 675.861 269.1C675.861 268.82 676.001 268.253 676.281 267.4C676.575 266.533 676.841 265.687 677.081 264.86C677.335 264.02 677.461 263.393 677.461 262.98C677.461 262.553 677.395 262.24 677.261 262.04C677.141 261.84 677.015 261.74 676.881 261.74C676.761 261.74 676.635 261.78 676.501 261.86C676.368 261.94 676.215 262.073 676.041 262.26C675.881 262.447 675.728 262.633 675.581 262.82C675.435 262.993 675.248 263.247 675.021 263.58C674.808 263.913 674.628 264.2 674.481 264.44C674.335 264.667 674.121 265 673.841 265.44C673.561 265.88 673.348 266.213 673.201 266.44C673.055 266.667 672.861 266.973 672.621 267.36C672.381 267.747 672.188 268.047 672.041 268.26C671.908 268.473 671.755 268.707 671.581 268.96C671.248 269.453 670.981 269.7 670.781 269.7C670.595 269.7 670.375 269.553 670.121 269.26C669.868 268.953 669.741 268.687 669.741 268.46C669.741 268.393 669.788 268.213 669.881 267.92C670.135 267.147 670.415 266.193 670.721 265.06C671.028 263.913 671.195 262.613 671.221 261.16C671.261 260.187 671.401 259.7 671.641 259.7C671.935 259.7 672.228 259.853 672.521 260.16C672.815 260.467 672.961 260.807 672.961 261.18C672.961 261.54 672.848 262.247 672.621 263.3C672.408 264.34 672.155 265.313 671.861 266.22ZM688.485 264.3C688.485 264.833 688.252 265.44 687.785 266.12C687.425 266.933 687.039 268.107 686.625 269.64C686.212 271.16 685.865 272.247 685.585 272.9C685.025 274.26 684.165 274.94 683.005 274.94C682.059 274.94 681.259 274.68 680.605 274.16C679.965 273.653 679.645 273.147 679.645 272.64C679.645 272.427 679.712 272.213 679.845 272C679.965 271.787 680.092 271.68 680.225 271.68C680.372 271.68 680.532 271.78 680.705 271.98C680.879 272.18 681.039 272.393 681.185 272.62C681.345 272.86 681.579 273.08 681.885 273.28C682.205 273.48 682.512 273.58 682.805 273.58C683.099 273.58 683.319 273.533 683.465 273.44C683.612 273.36 683.752 273.22 683.885 273.02C684.019 272.833 684.132 272.64 684.225 272.44C684.319 272.253 684.419 271.98 684.525 271.62C684.645 271.273 684.739 270.973 684.805 270.72C684.872 270.467 684.965 270.113 685.085 269.66C685.205 269.193 685.305 268.82 685.385 268.54C684.345 269.313 683.499 269.7 682.845 269.7C682.192 269.7 681.625 269.44 681.145 268.92C680.665 268.387 680.425 267.773 680.425 267.08C680.425 266.373 680.685 265.44 681.205 264.28C681.739 263.12 682.452 262.08 683.345 261.16C684.239 260.24 685.112 259.78 685.965 259.78C686.512 259.78 686.972 259.987 687.345 260.4C687.959 261.08 688.265 262.047 688.265 263.3C688.265 263.46 688.259 263.573 688.245 263.64C688.405 263.867 688.485 264.087 688.485 264.3ZM682.045 267.28C682.045 267.507 682.119 267.693 682.265 267.84C682.412 267.973 682.599 268.04 682.825 268.04C683.492 268.04 684.279 267.647 685.185 266.86C686.092 266.06 686.732 265.133 687.105 264.08C687.052 263.907 687.005 263.64 686.965 263.28C686.925 262.92 686.885 262.633 686.845 262.42C686.805 262.207 686.719 261.993 686.585 261.78C686.452 261.553 686.279 261.44 686.065 261.44C685.545 261.44 684.959 261.813 684.305 262.56C683.652 263.307 683.112 264.14 682.685 265.06C682.259 265.98 682.045 266.72 682.045 267.28ZM699.525 269.74C699.352 269.74 699.165 269.613 698.965 269.36C698.765 269.107 698.665 268.9 698.665 268.74C698.665 268.58 698.732 268.267 698.865 267.8C699.532 265.4 699.985 263.687 700.225 262.66C699.652 262.793 699.258 262.86 699.045 262.86C698.832 262.86 698.618 262.767 698.405 262.58C698.192 262.393 698.085 262.187 698.085 261.96C698.085 261.733 698.385 261.533 698.985 261.36C699.758 261.173 700.292 261.053 700.585 261C700.718 260.36 700.818 259.867 700.885 259.52C701.205 257.68 701.638 256.353 702.185 255.54C702.732 254.727 703.472 254.32 704.405 254.32C705.072 254.32 705.618 254.587 706.045 255.12C706.472 255.64 706.685 256.26 706.685 256.98C706.685 257.687 706.498 258.04 706.125 258.04C705.805 258.04 705.545 257.68 705.345 256.96C705.278 256.693 705.165 256.447 705.005 256.22C704.845 255.993 704.652 255.88 704.425 255.88C704.198 255.88 703.992 255.987 703.805 256.2C703.618 256.4 703.452 256.693 703.305 257.08C702.918 258.16 702.652 259.147 702.505 260.04L702.345 260.74C702.838 260.673 703.325 260.64 703.805 260.64C704.298 260.64 704.652 260.693 704.865 260.8C705.092 260.907 705.205 261.04 705.205 261.2C705.205 261.453 704.985 261.647 704.545 261.78C704.105 261.913 703.245 262.087 701.965 262.3C701.018 266.14 700.372 268.427 700.025 269.16C699.838 269.547 699.672 269.74 699.525 269.74ZM711.644 263.18C711.644 262.727 711.571 262.3 711.424 261.9C711.278 261.487 711.064 261.187 710.784 261C709.864 261.253 709.071 261.967 708.404 263.14C707.751 264.3 707.424 265.393 707.424 266.42C707.424 267.447 707.678 268.087 708.184 268.34C709.144 268.153 709.958 267.5 710.624 266.38C711.304 265.247 711.644 264.18 711.644 263.18ZM706.384 263.36C706.851 262.32 707.458 261.467 708.204 260.8C708.964 260.12 709.738 259.78 710.524 259.78C711.324 259.78 711.991 260.12 712.524 260.8C713.058 261.467 713.324 262.287 713.324 263.26C713.324 264.22 713.091 265.207 712.624 266.22C712.158 267.22 711.511 268.053 710.684 268.72C709.871 269.373 709.004 269.7 708.084 269.7C707.404 269.7 706.838 269.387 706.384 268.76C705.931 268.133 705.704 267.34 705.704 266.38C705.704 265.407 705.931 264.4 706.384 263.36ZM715.867 262.22L715.807 260.72C715.807 260.093 715.954 259.78 716.247 259.78C716.5 259.78 716.74 259.947 716.967 260.28C717.207 260.6 717.327 260.987 717.327 261.44C717.327 261.88 717.314 262.213 717.287 262.44C718.447 260.68 719.547 259.8 720.587 259.8C721.24 259.8 721.567 259.96 721.567 260.28C721.567 260.44 721.494 260.587 721.347 260.72C721.2 260.853 720.967 261.007 720.647 261.18C719.94 261.487 719.34 261.96 718.847 262.6C718.367 263.227 717.974 263.94 717.667 264.74C717.36 265.54 717.114 266.213 716.927 266.76C716.754 267.307 716.62 267.733 716.527 268.04C716.434 268.347 716.327 268.647 716.207 268.94C715.994 269.473 715.747 269.74 715.467 269.74C715.24 269.74 715.054 269.613 714.907 269.36C714.774 269.093 714.707 268.84 714.707 268.6C714.707 268.347 714.82 267.853 715.047 267.12C715.594 265.44 715.867 263.807 715.867 262.22ZM729.328 261.9L729.188 265.66C729.188 266.7 729.235 267.453 729.328 267.92C729.901 267.32 730.395 266.62 730.808 265.82C731.235 265.007 731.548 264.253 731.748 263.56C731.961 262.867 732.141 262.22 732.288 261.62C732.448 261.007 732.595 260.52 732.728 260.16C732.861 259.8 733.015 259.62 733.188 259.62C733.441 259.62 733.668 259.727 733.868 259.94C734.068 260.14 734.168 260.373 734.168 260.64C734.168 261.32 733.861 262.44 733.248 264C732.728 265.44 732.048 266.76 731.208 267.96C730.368 269.147 729.715 269.74 729.248 269.74C728.781 269.74 728.428 269.48 728.188 268.96C727.961 268.44 727.835 267.447 727.808 265.98C727.781 264.5 727.801 263.22 727.868 262.14C726.948 264.647 726.135 266.54 725.428 267.82C724.721 269.1 724.161 269.74 723.748 269.74C723.561 269.74 723.361 269.653 723.148 269.48C722.948 269.307 722.788 269.08 722.668 268.8C722.375 268.093 722.121 266.747 721.908 264.76C721.708 262.76 721.608 261.333 721.608 260.48C721.608 259.933 721.775 259.66 722.108 259.66C722.401 259.66 722.668 259.827 722.908 260.16C723.161 260.493 723.308 260.827 723.348 261.16C723.388 261.48 723.421 262.387 723.448 263.88C723.488 265.36 723.615 266.68 723.828 267.84C724.375 266.893 724.921 265.707 725.468 264.28C726.028 262.853 726.481 261.733 726.828 260.92C727.188 260.107 727.515 259.7 727.808 259.7C728.248 259.7 728.608 259.907 728.888 260.32C729.181 260.72 729.328 261.247 729.328 261.9ZM740.065 259.78C740.665 259.78 741.218 260.087 741.725 260.7C742.232 261.3 742.485 261.847 742.485 262.34C742.485 262.82 742.318 263.313 741.985 263.82C742.145 264.02 742.225 264.193 742.225 264.34C742.225 264.713 742.138 265.353 741.965 266.26C741.805 267.167 741.705 267.76 741.665 268.04C741.638 268.32 741.612 268.547 741.585 268.72C741.558 268.88 741.525 269.04 741.485 269.2C741.432 269.533 741.312 269.7 741.125 269.7C740.885 269.7 740.685 269.493 740.525 269.08C740.378 268.653 740.292 268.107 740.265 267.44C739.078 268.947 737.978 269.7 736.965 269.7C736.352 269.7 735.745 269.44 735.145 268.92C734.558 268.387 734.265 267.84 734.265 267.28C734.265 266.48 734.558 265.493 735.145 264.32C735.732 263.133 736.492 262.08 737.425 261.16C738.358 260.24 739.238 259.78 740.065 259.78ZM740.985 263.3C740.985 262.06 740.738 261.44 740.245 261.44C739.725 261.44 739.118 261.813 738.425 262.56C737.732 263.293 737.145 264.127 736.665 265.06C736.185 265.993 735.945 266.733 735.945 267.28C735.945 267.507 736.038 267.693 736.225 267.84C736.412 267.973 736.632 268.04 736.885 268.04C737.512 268.04 738.218 267.62 739.005 266.78C739.792 265.927 740.338 264.893 740.645 263.68C740.685 263.48 740.798 263.36 740.985 263.32V263.3ZM745.32 262.22L745.26 260.72C745.26 260.093 745.407 259.78 745.7 259.78C745.953 259.78 746.193 259.947 746.42 260.28C746.66 260.6 746.78 260.987 746.78 261.44C746.78 261.88 746.767 262.213 746.74 262.44C747.9 260.68 749 259.8 750.04 259.8C750.693 259.8 751.02 259.96 751.02 260.28C751.02 260.44 750.947 260.587 750.8 260.72C750.653 260.853 750.42 261.007 750.1 261.18C749.393 261.487 748.793 261.96 748.3 262.6C747.82 263.227 747.427 263.94 747.12 264.74C746.813 265.54 746.567 266.213 746.38 266.76C746.207 267.307 746.073 267.733 745.98 268.04C745.887 268.347 745.78 268.647 745.66 268.94C745.447 269.473 745.2 269.74 744.92 269.74C744.693 269.74 744.507 269.613 744.36 269.36C744.227 269.093 744.16 268.84 744.16 268.6C744.16 268.347 744.273 267.853 744.5 267.12C745.047 265.44 745.32 263.807 745.32 262.22ZM759.301 254.18C759.514 254.18 759.774 254.38 760.081 254.78C760.401 255.167 760.561 255.533 760.561 255.88C760.561 256.227 760.394 257.213 760.061 258.84C759.728 260.453 759.341 262.127 758.901 263.86C757.941 267.753 757.308 269.7 757.001 269.7C756.814 269.7 756.608 269.587 756.381 269.36C756.168 269.12 756.061 268.913 756.061 268.74C756.061 268.567 756.108 268.22 756.201 267.7C754.894 269.033 753.754 269.7 752.781 269.7C752.194 269.7 751.661 269.433 751.181 268.9C750.714 268.367 750.481 267.813 750.481 267.24C750.481 266.413 750.701 265.433 751.141 264.3C751.594 263.153 752.241 262.113 753.081 261.18C753.921 260.247 754.814 259.78 755.761 259.78C756.708 259.78 757.368 260.347 757.741 261.48C758.421 258.653 758.794 256.42 758.861 254.78C758.861 254.38 759.008 254.18 759.301 254.18ZM757.101 264C757.101 263.28 756.974 262.673 756.721 262.18C756.481 261.687 756.188 261.44 755.841 261.44C755.268 261.44 754.681 261.793 754.081 262.5C753.481 263.207 753.001 264.02 752.641 264.94C752.294 265.847 752.121 266.633 752.121 267.3C752.121 267.54 752.208 267.733 752.381 267.88C752.554 268.027 752.761 268.1 753.001 268.1C753.521 268.1 754.221 267.727 755.101 266.98C755.994 266.233 756.641 265.353 757.041 264.34L757.101 264.1V264ZM766.442 259.78C766.895 259.78 767.322 260.033 767.722 260.54C768.122 261.033 768.322 261.467 768.322 261.84C768.322 262.067 768.215 262.18 768.002 262.18C767.855 262.18 767.628 262.067 767.322 261.84C767.015 261.6 766.702 261.48 766.382 261.48C766.062 261.48 765.555 261.667 764.862 262.04C764.182 262.413 763.842 262.807 763.842 263.22C763.842 263.527 764.455 264.053 765.682 264.8C766.148 265.093 766.568 265.473 766.942 265.94C767.328 266.393 767.522 266.887 767.522 267.42C767.522 267.94 767.155 268.453 766.422 268.96C765.702 269.453 764.855 269.7 763.882 269.7C762.922 269.7 762.068 269.467 761.322 269C760.588 268.533 760.222 268.093 760.222 267.68C760.222 267.507 760.262 267.373 760.342 267.28C760.435 267.173 760.548 267.12 760.682 267.12C760.815 267.12 761.002 267.207 761.242 267.38C761.962 267.9 762.708 268.16 763.482 268.16C764.268 268.16 764.835 268.073 765.182 267.9C765.528 267.713 765.702 267.473 765.702 267.18C765.702 266.873 765.508 266.553 765.122 266.22C764.735 265.873 764.308 265.567 763.842 265.3C763.388 265.033 762.968 264.707 762.582 264.32C762.195 263.933 762.002 263.54 762.002 263.14C762.002 262.433 762.555 261.7 763.662 260.94C764.782 260.167 765.708 259.78 766.442 259.78ZM770.317 267.56C770.544 267.28 770.771 267.14 770.997 267.14C771.224 267.14 771.497 267.467 771.817 268.12C772.137 268.76 772.297 269.24 772.297 269.56C772.297 269.653 772.231 269.76 772.097 269.88C771.964 270 771.837 270.06 771.717 270.06C771.384 270.06 771.011 269.853 770.597 269.44C770.184 269.013 769.977 268.667 769.977 268.4C769.977 268.12 770.091 267.84 770.317 267.56ZM772.897 253.8C773.151 253.8 773.497 253.96 773.937 254.28C774.377 254.6 774.597 254.853 774.597 255.04C774.597 256.173 774.304 258.167 773.717 261.02C773.144 263.873 772.684 265.3 772.337 265.3C772.124 265.3 771.924 265.193 771.737 264.98C771.551 264.753 771.457 264.52 771.457 264.28C771.444 264.2 771.524 263.72 771.697 262.84C771.884 261.96 772.077 260.727 772.277 259.14C772.477 257.54 772.577 255.933 772.577 254.32C772.577 253.973 772.684 253.8 772.897 253.8Z" fill="black"/>
<path d="M572 366.974C315.609 366.974 332.626 127.126 2.99316 134.151V366.974H572Z" fill="#4D3EF6"/>
<path d="M2.99316 367C1.88859 367 0.993164 367.895 0.993164 369C0.993164 370.105 1.88859 371 2.99316 371V367ZM800.407 370.414C801.188 369.633 801.188 368.367 800.407 367.586L787.679 354.858C786.898 354.077 785.632 354.077 784.851 354.858C784.07 355.639 784.07 356.905 784.851 357.686L796.165 369L784.851 380.314C784.07 381.095 784.07 382.361 784.851 383.142C785.632 383.923 786.898 383.923 787.679 383.142L800.407 370.414ZM2.99316 371H798.993V367H2.99316V371Z" fill="black"/>
<line x1="1.99316" y1="369" x2="1.99315" y2="104" stroke="black" stroke-opacity="0.46" stroke-width="2" stroke-dasharray="10 10"/>
<line x1="565.993" y1="369" x2="565.993" y2="104" stroke="black" stroke-opacity="0.46" stroke-width="2" stroke-dasharray="10 10"/>
<path d="M197.14 38L202.667 23.9961H205.44L210.968 38H208.38L207.12 34.7773H200.948L199.728 38H197.14ZM201.788 32.5801H206.261L204.005 26.7598L201.788 32.5801ZM212.54 38V28.3027H214.806V29.1621C215.593 28.3743 216.534 27.9805 217.628 27.9805C218.253 27.9805 218.832 28.1139 219.366 28.3809C219.9 28.6478 220.343 29.0612 220.694 29.6211C221.046 30.1745 221.222 30.8223 221.222 31.5645V38H218.927V32.1406C218.927 31.5221 218.741 31.0371 218.37 30.6855C218.006 30.321 217.543 30.1387 216.983 30.1387C216.137 30.1387 215.424 30.5195 214.845 31.2812V38H212.54ZM223.409 24.6602C223.409 24.2174 223.556 23.8496 223.849 23.5566C224.142 23.2637 224.503 23.1172 224.933 23.1172C225.382 23.1172 225.753 23.2637 226.046 23.5566C226.345 23.8431 226.495 24.2109 226.495 24.6602C226.495 25.0964 226.345 25.4577 226.046 25.7441C225.753 26.0241 225.382 26.1641 224.933 26.1641C224.496 26.1641 224.132 26.0241 223.839 25.7441C223.552 25.4577 223.409 25.0964 223.409 24.6602ZM223.81 38V28.3027H226.114V38H223.81ZM228.868 38V28.3027H231.134V29.1621C231.85 28.3743 232.768 27.9805 233.888 27.9805C234.454 27.9805 234.978 28.0977 235.46 28.332C235.942 28.5664 236.339 28.9082 236.651 29.3574C237.511 28.4395 238.578 27.9805 239.854 27.9805C240.479 27.9805 241.052 28.1139 241.573 28.3809C242.094 28.6478 242.524 29.0579 242.862 29.6113C243.201 30.1582 243.37 30.8092 243.37 31.5645V38H241.075V32.1406C241.075 31.5156 240.916 31.0273 240.597 30.6758C240.278 30.3177 239.848 30.1387 239.308 30.1387C238.5 30.1387 237.813 30.5 237.247 31.2227C237.267 31.3398 237.276 31.4538 237.276 31.5645V38H234.991V32.1406C234.991 31.5156 234.835 31.0273 234.522 30.6758C234.21 30.3177 233.787 30.1387 233.253 30.1387C232.446 30.1387 231.752 30.5195 231.173 31.2812V38H228.868ZM245.431 34.9434C245.457 33.9668 245.825 33.2051 246.534 32.6582C247.25 32.1048 248.11 31.8314 249.112 31.8379C250.102 31.8379 250.961 32.0397 251.69 32.4434V31.6035C251.69 31.1478 251.518 30.7702 251.173 30.4707C250.828 30.1712 250.32 30.0215 249.649 30.0215C248.451 30.0215 247.231 30.3958 245.987 31.1445V28.8789C247.192 28.2799 248.461 27.9805 249.796 27.9805C250.753 27.9805 251.541 28.1432 252.159 28.4688C252.778 28.7943 253.237 29.224 253.536 29.7578C253.842 30.2852 253.995 30.8646 253.995 31.4961V38H251.808V37.2773C251.078 37.9609 250.16 38.3027 249.054 38.3027C247.979 38.3027 247.107 38.0065 246.437 37.4141C245.766 36.8086 245.431 35.985 245.431 34.9434ZM247.755 34.9043C247.755 35.3796 247.927 35.7572 248.272 36.0371C248.624 36.3171 249.063 36.457 249.591 36.457C250.034 36.457 250.44 36.3724 250.812 36.2031C251.196 36.0339 251.489 35.8451 251.69 35.6367V34.1621C251.482 33.9863 251.186 33.8333 250.802 33.7031C250.424 33.5664 250.021 33.498 249.591 33.498C249.076 33.498 248.64 33.625 248.282 33.8789C247.931 34.1328 247.755 34.4746 247.755 34.9043ZM255.411 30.2754V28.3027H257.208V25.5586L259.386 24.5625V28.3027H261.671V30.2754H259.386V34.9238C259.386 35.7897 259.861 36.2227 260.812 36.2227C261.144 36.2227 261.43 36.1803 261.671 36.0957V38.0781C261.248 38.2279 260.727 38.3027 260.108 38.3027C259.203 38.3027 258.474 38.0586 257.921 37.5703C257.368 37.0755 257.091 36.3464 257.091 35.3828V30.2754H255.411ZM263.409 24.6602C263.409 24.2174 263.556 23.8496 263.849 23.5566C264.142 23.2637 264.503 23.1172 264.933 23.1172C265.382 23.1172 265.753 23.2637 266.046 23.5566C266.345 23.8431 266.495 24.2109 266.495 24.6602C266.495 25.0964 266.345 25.4577 266.046 25.7441C265.753 26.0241 265.382 26.1641 264.933 26.1641C264.496 26.1641 264.132 26.0241 263.839 25.7441C263.552 25.4577 263.409 25.0964 263.409 24.6602ZM263.81 38V28.3027H266.114V38H263.81ZM268.116 33.1367C268.123 31.6654 268.608 30.4414 269.571 29.4648C270.535 28.4883 271.782 27.9935 273.312 27.9805C274.815 27.9805 276.056 28.472 277.032 29.4551C278.009 30.4316 278.497 31.6589 278.497 33.1367C278.497 34.6081 278.009 35.8385 277.032 36.8281C276.069 37.8112 274.828 38.3027 273.312 38.3027C271.801 38.3027 270.558 37.8112 269.581 36.8281C268.604 35.8385 268.116 34.6081 268.116 33.1367ZM273.312 36.1445C274.093 36.1445 274.75 35.8743 275.284 35.334C275.825 34.7936 276.095 34.0612 276.095 33.1367C276.095 32.2057 275.825 31.4798 275.284 30.959C274.75 30.4251 274.093 30.1582 273.312 30.1582C272.524 30.1582 271.86 30.4251 271.319 30.959C270.779 31.4798 270.509 32.2057 270.509 33.1367C270.509 34.0612 270.779 34.7936 271.319 35.334C271.86 35.8743 272.524 36.1445 273.312 36.1445ZM280.646 38V28.3027H282.911V29.1621C283.699 28.3743 284.64 27.9805 285.733 27.9805C286.358 27.9805 286.938 28.1139 287.472 28.3809C288.006 28.6478 288.448 29.0612 288.8 29.6211C289.151 30.1745 289.327 30.8223 289.327 31.5645V38H287.032V32.1406C287.032 31.5221 286.847 31.0371 286.476 30.6855C286.111 30.321 285.649 30.1387 285.089 30.1387C284.243 30.1387 283.53 30.5195 282.95 31.2812V38H280.646ZM296.71 33.1172C296.71 32.1732 296.892 31.3171 297.257 30.5488C297.628 29.7806 298.165 29.1589 298.868 28.6836C299.578 28.2148 300.392 27.9805 301.31 27.9805C302.462 27.9805 303.442 28.3743 304.249 29.1621V23.498H306.544V38H304.249V37.1211C303.435 37.9089 302.455 38.3027 301.31 38.3027C300.392 38.3027 299.578 38.0684 298.868 37.5996C298.165 37.1309 297.628 36.5059 297.257 35.7246C296.892 34.9434 296.71 34.0742 296.71 33.1172ZM299.103 33.1172C299.103 34.0417 299.347 34.7806 299.835 35.334C300.33 35.8743 300.981 36.1445 301.788 36.1445C302.739 36.1445 303.559 35.6953 304.249 34.7969V31.457C303.585 30.5911 302.765 30.1582 301.788 30.1582C300.981 30.1582 300.33 30.4251 299.835 30.959C299.347 31.4863 299.103 32.2057 299.103 33.1172ZM309.2 34.7188V28.3027H311.505V34.1426C311.505 34.7546 311.69 35.2461 312.062 35.6172C312.433 35.9818 312.892 36.1641 313.438 36.1641C314.291 36.1641 315.004 35.7832 315.577 35.0215V28.3027H317.882V38H315.626V37.1406C314.877 37.9154 313.937 38.3027 312.804 38.3027C311.866 38.3027 311.036 38 310.313 37.3945C309.975 37.0951 309.705 36.7174 309.503 36.2617C309.301 35.7995 309.2 35.2852 309.2 34.7188ZM320.587 38V28.3027H322.853V29.8555C323.106 29.263 323.478 28.804 323.966 28.4785C324.454 28.1465 325.007 27.9805 325.626 27.9805C325.912 27.9805 326.147 28.0065 326.329 28.0586V30.4609C325.899 30.4089 325.58 30.3828 325.372 30.3828C324.747 30.3828 324.21 30.5586 323.761 30.9102C323.312 31.2617 323.022 31.6849 322.892 32.1797V38H320.587ZM327.638 34.9434C327.664 33.9668 328.032 33.2051 328.741 32.6582C329.457 32.1048 330.317 31.8314 331.319 31.8379C332.309 31.8379 333.168 32.0397 333.897 32.4434V31.6035C333.897 31.1478 333.725 30.7702 333.38 30.4707C333.035 30.1712 332.527 30.0215 331.856 30.0215C330.659 30.0215 329.438 30.3958 328.194 31.1445V28.8789C329.399 28.2799 330.668 27.9805 332.003 27.9805C332.96 27.9805 333.748 28.1432 334.366 28.4688C334.985 28.7943 335.444 29.224 335.743 29.7578C336.049 30.2852 336.202 30.8646 336.202 31.4961V38H334.015V37.2773C333.285 37.9609 332.368 38.3027 331.261 38.3027C330.187 38.3027 329.314 38.0065 328.644 37.4141C327.973 36.8086 327.638 35.985 327.638 34.9434ZM329.962 34.9043C329.962 35.3796 330.134 35.7572 330.479 36.0371C330.831 36.3171 331.271 36.457 331.798 36.457C332.241 36.457 332.647 36.3724 333.019 36.2031C333.403 36.0339 333.696 35.8451 333.897 35.6367V34.1621C333.689 33.9863 333.393 33.8333 333.009 33.7031C332.631 33.5664 332.228 33.498 331.798 33.498C331.284 33.498 330.847 33.625 330.489 33.8789C330.138 34.1328 329.962 34.4746 329.962 34.9043ZM337.618 30.2754V28.3027H339.415V25.5586L341.593 24.5625V28.3027H343.878V30.2754H341.593V34.9238C341.593 35.7897 342.068 36.2227 343.019 36.2227C343.351 36.2227 343.637 36.1803 343.878 36.0957V38.0781C343.455 38.2279 342.934 38.3027 342.315 38.3027C341.41 38.3027 340.681 38.0586 340.128 37.5703C339.575 37.0755 339.298 36.3464 339.298 35.3828V30.2754H337.618ZM345.616 24.6602C345.616 24.2174 345.763 23.8496 346.056 23.5566C346.349 23.2637 346.71 23.1172 347.14 23.1172C347.589 23.1172 347.96 23.2637 348.253 23.5566C348.552 23.8431 348.702 24.2109 348.702 24.6602C348.702 25.0964 348.552 25.4577 348.253 25.7441C347.96 26.0241 347.589 26.1641 347.14 26.1641C346.703 26.1641 346.339 26.0241 346.046 25.7441C345.759 25.4577 345.616 25.0964 345.616 24.6602ZM346.017 38V28.3027H348.321V38H346.017ZM350.323 33.1367C350.33 31.6654 350.815 30.4414 351.778 29.4648C352.742 28.4883 353.989 27.9935 355.519 27.9805C357.022 27.9805 358.263 28.472 359.239 29.4551C360.216 30.4316 360.704 31.6589 360.704 33.1367C360.704 34.6081 360.216 35.8385 359.239 36.8281C358.276 37.8112 357.035 38.3027 355.519 38.3027C354.008 38.3027 352.765 37.8112 351.788 36.8281C350.812 35.8385 350.323 34.6081 350.323 33.1367ZM355.519 36.1445C356.3 36.1445 356.957 35.8743 357.491 35.334C358.032 34.7936 358.302 34.0612 358.302 33.1367C358.302 32.2057 358.032 31.4798 357.491 30.959C356.957 30.4251 356.3 30.1582 355.519 30.1582C354.731 30.1582 354.067 30.4251 353.526 30.959C352.986 31.4798 352.716 32.2057 352.716 33.1367C352.716 34.0612 352.986 34.7936 353.526 35.334C354.067 35.8743 354.731 36.1445 355.519 36.1445ZM362.853 38V28.3027H365.118V29.1621C365.906 28.3743 366.847 27.9805 367.94 27.9805C368.565 27.9805 369.145 28.1139 369.679 28.3809C370.213 28.6478 370.655 29.0612 371.007 29.6211C371.358 30.1745 371.534 30.8223 371.534 31.5645V38H369.239V32.1406C369.239 31.5221 369.054 31.0371 368.683 30.6855C368.318 30.321 367.856 30.1387 367.296 30.1387C366.45 30.1387 365.737 30.5195 365.157 31.2812V38H362.853Z" fill="black"/>
<path d="M3.07471 94.501C3.07465 34.001 90.0001 34.001 172.739 34.001" stroke="black" stroke-width="3"/>
<path d="M566.658 95C573.285 34 453 34 396.993 34" stroke="black" stroke-width="3"/>
<path d="M757 372.5C757 372.5 761.314 357.378 757 349.5C749.122 335.114 722.878 340.386 715 326C710.686 318.122 715 281.5 715 281.5" stroke="#E56076" stroke-width="3"/>
<path d="M377.647 388.242V385.996H389.2V388.242H384.64V400H382.208V388.242H377.647ZM390.851 386.66C390.851 386.217 390.997 385.85 391.29 385.557C391.583 385.264 391.944 385.117 392.374 385.117C392.823 385.117 393.194 385.264 393.487 385.557C393.787 385.843 393.937 386.211 393.937 386.66C393.937 387.096 393.787 387.458 393.487 387.744C393.194 388.024 392.823 388.164 392.374 388.164C391.938 388.164 391.573 388.024 391.28 387.744C390.994 387.458 390.851 387.096 390.851 386.66ZM391.251 400V390.303H393.556V400H391.251ZM396.31 400V390.303H398.575V391.162C399.291 390.374 400.209 389.98 401.329 389.98C401.896 389.98 402.42 390.098 402.901 390.332C403.383 390.566 403.78 390.908 404.093 391.357C404.952 390.439 406.02 389.98 407.296 389.98C407.921 389.98 408.494 390.114 409.015 390.381C409.535 390.648 409.965 391.058 410.304 391.611C410.642 392.158 410.812 392.809 410.812 393.564V400H408.517V394.141C408.517 393.516 408.357 393.027 408.038 392.676C407.719 392.318 407.289 392.139 406.749 392.139C405.942 392.139 405.255 392.5 404.688 393.223C404.708 393.34 404.718 393.454 404.718 393.564V400H402.433V394.141C402.433 393.516 402.276 393.027 401.964 392.676C401.651 392.318 401.228 392.139 400.694 392.139C399.887 392.139 399.194 392.52 398.614 393.281V400H396.31ZM412.726 395.098C412.726 394.349 412.853 393.656 413.106 393.018C413.36 392.373 413.709 391.829 414.151 391.387C415.121 390.449 416.264 389.98 417.579 389.98C419.076 389.98 420.248 390.459 421.095 391.416C421.954 392.367 422.384 393.613 422.384 395.156C422.384 395.469 422.371 395.716 422.345 395.898H415.138C415.177 396.608 415.463 397.188 415.997 397.637C416.537 398.079 417.172 398.301 417.901 398.301C418.637 398.301 419.301 398.2 419.894 397.998C420.499 397.79 421.127 397.451 421.778 396.982V399.082C420.639 399.896 419.301 400.303 417.765 400.303C416.834 400.303 415.994 400.111 415.245 399.727C414.496 399.336 413.888 398.74 413.419 397.939C412.957 397.139 412.726 396.191 412.726 395.098ZM415.206 394.18H419.981C419.962 393.542 419.741 393.018 419.317 392.607C418.901 392.191 418.321 391.982 417.579 391.982C416.915 391.982 416.362 392.201 415.919 392.637C415.483 393.073 415.245 393.587 415.206 394.18Z" fill="black"/>
<defs>
<linearGradient id="paint0_linear" x1="567" y1="379" x2="800" y2="379" gradientUnits="userSpaceOnUse">
<stop stop-color="#E56076"/>
<stop offset="0.879168" stop-color="#E56177"/>
</linearGradient>
</defs>
</svg>
