<svg width="800" height="405" viewBox="0 0 800 405" fill="none" xmlns="http://www.w3.org/2000/svg">
<rect x="235" y="391" width="233" height="20" transform="rotate(-180 235 391)" fill="url(#paint0_linear)"/>
<path d="M234.479 369C494.61 369 281.56 129.125 616 136.151H799V369L234.479 369Z" fill="url(#paint1_linear)"/>
<rect x="619" y="136" width="179" height="255" fill="#E66177"/>
<path d="M2 367C0.895431 367 0 367.895 0 369C0 370.105 0.895431 371 2 371V367ZM799.414 370.414C800.195 369.633 800.195 368.367 799.414 367.586L786.686 354.858C785.905 354.077 784.639 354.077 783.858 354.858C783.077 355.639 783.077 356.905 783.858 357.686L795.172 369L783.858 380.314C783.077 381.095 783.077 382.361 783.858 383.142C784.639 383.923 785.905 383.923 786.686 383.142L799.414 370.414ZM2 371H798V367H2V371Z" fill="black"/>
<line x1="235" y1="369" x2="235" y2="104" stroke="black" stroke-opacity="0.46" stroke-width="2" stroke-dasharray="10 10"/>
<line x1="618" y1="369" x2="618" y2="104" stroke="black" stroke-opacity="0.46" stroke-width="2" stroke-dasharray="10 10"/>
<path d="M381.792 38L387.319 23.9961H390.093L395.62 38H393.032L391.772 34.7773H385.6L384.38 38H381.792ZM386.44 32.5801H390.913L388.657 26.7598L386.44 32.5801ZM397.192 38V28.3027H399.458V29.1621C400.246 28.3743 401.186 27.9805 402.28 27.9805C402.905 27.9805 403.484 28.1139 404.018 28.3809C404.552 28.6478 404.995 29.0612 405.346 29.6211C405.698 30.1745 405.874 30.8223 405.874 31.5645V38H403.579V32.1406C403.579 31.5221 403.393 31.0371 403.022 30.6855C402.658 30.321 402.195 30.1387 401.636 30.1387C400.789 30.1387 400.076 30.5195 399.497 31.2812V38H397.192ZM408.061 24.6602C408.061 24.2174 408.208 23.8496 408.501 23.5566C408.794 23.2637 409.155 23.1172 409.585 23.1172C410.034 23.1172 410.405 23.2637 410.698 23.5566C410.997 23.8431 411.147 24.2109 411.147 24.6602C411.147 25.0964 410.997 25.4577 410.698 25.7441C410.405 26.0241 410.034 26.1641 409.585 26.1641C409.149 26.1641 408.784 26.0241 408.491 25.7441C408.205 25.4577 408.061 25.0964 408.061 24.6602ZM408.462 38V28.3027H410.766V38H408.462ZM413.52 38V28.3027H415.786V29.1621C416.502 28.3743 417.42 27.9805 418.54 27.9805C419.106 27.9805 419.63 28.0977 420.112 28.332C420.594 28.5664 420.991 28.9082 421.303 29.3574C422.163 28.4395 423.231 27.9805 424.507 27.9805C425.132 27.9805 425.705 28.1139 426.225 28.3809C426.746 28.6478 427.176 29.0579 427.514 29.6113C427.853 30.1582 428.022 30.8092 428.022 31.5645V38H425.727V32.1406C425.727 31.5156 425.568 31.0273 425.249 30.6758C424.93 30.3177 424.5 30.1387 423.96 30.1387C423.152 30.1387 422.466 30.5 421.899 31.2227C421.919 31.3398 421.928 31.4538 421.928 31.5645V38H419.643V32.1406C419.643 31.5156 419.487 31.0273 419.175 30.6758C418.862 30.3177 418.439 30.1387 417.905 30.1387C417.098 30.1387 416.404 30.5195 415.825 31.2812V38H413.52ZM430.083 34.9434C430.109 33.9668 430.477 33.2051 431.186 32.6582C431.902 32.1048 432.762 31.8314 433.764 31.8379C434.754 31.8379 435.613 32.0397 436.343 32.4434V31.6035C436.343 31.1478 436.17 30.7702 435.825 30.4707C435.48 30.1712 434.972 30.0215 434.302 30.0215C433.104 30.0215 431.883 30.3958 430.639 31.1445V28.8789C431.844 28.2799 433.113 27.9805 434.448 27.9805C435.405 27.9805 436.193 28.1432 436.811 28.4688C437.43 28.7943 437.889 29.224 438.188 29.7578C438.494 30.2852 438.647 30.8646 438.647 31.4961V38H436.46V37.2773C435.731 37.9609 434.813 38.3027 433.706 38.3027C432.632 38.3027 431.759 38.0065 431.089 37.4141C430.418 36.8086 430.083 35.985 430.083 34.9434ZM432.407 34.9043C432.407 35.3796 432.58 35.7572 432.925 36.0371C433.276 36.3171 433.716 36.457 434.243 36.457C434.686 36.457 435.093 36.3724 435.464 36.2031C435.848 36.0339 436.141 35.8451 436.343 35.6367V34.1621C436.134 33.9863 435.838 33.8333 435.454 33.7031C435.076 33.5664 434.673 33.498 434.243 33.498C433.729 33.498 433.292 33.625 432.934 33.8789C432.583 34.1328 432.407 34.4746 432.407 34.9043ZM440.063 30.2754V28.3027H441.86V25.5586L444.038 24.5625V28.3027H446.323V30.2754H444.038V34.9238C444.038 35.7897 444.513 36.2227 445.464 36.2227C445.796 36.2227 446.082 36.1803 446.323 36.0957V38.0781C445.9 38.2279 445.379 38.3027 444.761 38.3027C443.856 38.3027 443.126 38.0586 442.573 37.5703C442.02 37.0755 441.743 36.3464 441.743 35.3828V30.2754H440.063ZM448.061 24.6602C448.061 24.2174 448.208 23.8496 448.501 23.5566C448.794 23.2637 449.155 23.1172 449.585 23.1172C450.034 23.1172 450.405 23.2637 450.698 23.5566C450.997 23.8431 451.147 24.2109 451.147 24.6602C451.147 25.0964 450.997 25.4577 450.698 25.7441C450.405 26.0241 450.034 26.1641 449.585 26.1641C449.149 26.1641 448.784 26.0241 448.491 25.7441C448.205 25.4577 448.061 25.0964 448.061 24.6602ZM448.462 38V28.3027H450.766V38H448.462ZM452.768 33.1367C452.775 31.6654 453.26 30.4414 454.223 29.4648C455.187 28.4883 456.434 27.9935 457.964 27.9805C459.468 27.9805 460.708 28.472 461.684 29.4551C462.661 30.4316 463.149 31.6589 463.149 33.1367C463.149 34.6081 462.661 35.8385 461.684 36.8281C460.721 37.8112 459.481 38.3027 457.964 38.3027C456.453 38.3027 455.21 37.8112 454.233 36.8281C453.257 35.8385 452.768 34.6081 452.768 33.1367ZM457.964 36.1445C458.745 36.1445 459.402 35.8743 459.936 35.334C460.477 34.7936 460.747 34.0612 460.747 33.1367C460.747 32.2057 460.477 31.4798 459.936 30.959C459.402 30.4251 458.745 30.1582 457.964 30.1582C457.176 30.1582 456.512 30.4251 455.971 30.959C455.431 31.4798 455.161 32.2057 455.161 33.1367C455.161 34.0612 455.431 34.7936 455.971 35.334C456.512 35.8743 457.176 36.1445 457.964 36.1445ZM465.298 38V28.3027H467.563V29.1621C468.351 28.3743 469.292 27.9805 470.386 27.9805C471.011 27.9805 471.59 28.1139 472.124 28.3809C472.658 28.6478 473.1 29.0612 473.452 29.6211C473.803 30.1745 473.979 30.8223 473.979 31.5645V38H471.684V32.1406C471.684 31.5221 471.499 31.0371 471.128 30.6855C470.763 30.321 470.301 30.1387 469.741 30.1387C468.895 30.1387 468.182 30.5195 467.602 31.2812V38H465.298ZM390.747 53.1172C390.747 52.1732 390.929 51.3171 391.294 50.5488C391.665 49.7806 392.202 49.1589 392.905 48.6836C393.615 48.2148 394.428 47.9805 395.346 47.9805C396.499 47.9805 397.479 48.3743 398.286 49.1621V43.498H400.581V58H398.286V57.1211C397.472 57.9089 396.492 58.3027 395.346 58.3027C394.428 58.3027 393.615 58.0684 392.905 57.5996C392.202 57.1309 391.665 56.5059 391.294 55.7246C390.929 54.9434 390.747 54.0742 390.747 53.1172ZM393.139 53.1172C393.139 54.0417 393.384 54.7806 393.872 55.334C394.367 55.8743 395.018 56.1445 395.825 56.1445C396.775 56.1445 397.596 55.6953 398.286 54.7969V51.457C397.622 50.5911 396.802 50.1582 395.825 50.1582C395.018 50.1582 394.367 50.4251 393.872 50.959C393.384 51.4863 393.139 52.2057 393.139 53.1172ZM403.237 54.7188V48.3027H405.542V54.1426C405.542 54.7546 405.727 55.2461 406.098 55.6172C406.469 55.9818 406.928 56.1641 407.475 56.1641C408.328 56.1641 409.041 55.7832 409.614 55.0215V48.3027H411.919V58H409.663V57.1406C408.914 57.9154 407.973 58.3027 406.841 58.3027C405.903 58.3027 405.073 58 404.35 57.3945C404.012 57.0951 403.742 56.7174 403.54 56.2617C403.338 55.7995 403.237 55.2852 403.237 54.7188ZM414.624 58V48.3027H416.889V49.8555C417.143 49.263 417.514 48.804 418.003 48.4785C418.491 48.1465 419.044 47.9805 419.663 47.9805C419.949 47.9805 420.184 48.0065 420.366 48.0586V50.4609C419.936 50.4089 419.617 50.3828 419.409 50.3828C418.784 50.3828 418.247 50.5586 417.798 50.9102C417.348 51.2617 417.059 51.6849 416.928 52.1797V58H414.624ZM421.675 54.9434C421.701 53.9668 422.068 53.2051 422.778 52.6582C423.494 52.1048 424.354 51.8314 425.356 51.8379C426.346 51.8379 427.205 52.0397 427.934 52.4434V51.6035C427.934 51.1478 427.762 50.7702 427.417 50.4707C427.072 50.1712 426.564 50.0215 425.893 50.0215C424.695 50.0215 423.475 50.3958 422.231 51.1445V48.8789C423.436 48.2799 424.705 47.9805 426.04 47.9805C426.997 47.9805 427.785 48.1432 428.403 48.4688C429.022 48.7943 429.481 49.224 429.78 49.7578C430.086 50.2852 430.239 50.8646 430.239 51.4961V58H428.052V57.2773C427.322 57.9609 426.404 58.3027 425.298 58.3027C424.223 58.3027 423.351 58.0065 422.68 57.4141C422.01 56.8086 421.675 55.985 421.675 54.9434ZM423.999 54.9043C423.999 55.3796 424.171 55.7572 424.516 56.0371C424.868 56.3171 425.307 56.457 425.835 56.457C426.277 56.457 426.684 56.3724 427.055 56.2031C427.44 56.0339 427.733 55.8451 427.934 55.6367V54.1621C427.726 53.9863 427.43 53.8333 427.046 53.7031C426.668 53.5664 426.264 53.498 425.835 53.498C425.32 53.498 424.884 53.625 424.526 53.8789C424.175 54.1328 423.999 54.4746 423.999 54.9043ZM431.655 50.2754V48.3027H433.452V45.5586L435.63 44.5625V48.3027H437.915V50.2754H435.63V54.9238C435.63 55.7897 436.105 56.2227 437.055 56.2227C437.387 56.2227 437.674 56.1803 437.915 56.0957V58.0781C437.492 58.2279 436.971 58.3027 436.352 58.3027C435.447 58.3027 434.718 58.0586 434.165 57.5703C433.611 57.0755 433.335 56.3464 433.335 55.3828V50.2754H431.655ZM439.653 44.6602C439.653 44.2174 439.8 43.8496 440.093 43.5566C440.386 43.2637 440.747 43.1172 441.177 43.1172C441.626 43.1172 441.997 43.2637 442.29 43.5566C442.589 43.8431 442.739 44.2109 442.739 44.6602C442.739 45.0964 442.589 45.4577 442.29 45.7441C441.997 46.0241 441.626 46.1641 441.177 46.1641C440.74 46.1641 440.376 46.0241 440.083 45.7441C439.796 45.4577 439.653 45.0964 439.653 44.6602ZM440.053 58V48.3027H442.358V58H440.053ZM444.36 53.1367C444.367 51.6654 444.852 50.4414 445.815 49.4648C446.779 48.4883 448.025 47.9935 449.555 47.9805C451.059 47.9805 452.3 48.472 453.276 49.4551C454.253 50.4316 454.741 51.6589 454.741 53.1367C454.741 54.6081 454.253 55.8385 453.276 56.8281C452.313 57.8112 451.072 58.3027 449.555 58.3027C448.045 58.3027 446.802 57.8112 445.825 56.8281C444.848 55.8385 444.36 54.6081 444.36 53.1367ZM449.555 56.1445C450.337 56.1445 450.994 55.8743 451.528 55.334C452.068 54.7936 452.339 54.0612 452.339 53.1367C452.339 52.2057 452.068 51.4798 451.528 50.959C450.994 50.4251 450.337 50.1582 449.555 50.1582C448.768 50.1582 448.104 50.4251 447.563 50.959C447.023 51.4798 446.753 52.2057 446.753 53.1367C446.753 54.0612 447.023 54.7936 447.563 55.334C448.104 55.8743 448.768 56.1445 449.555 56.1445ZM456.889 58V48.3027H459.155V49.1621C459.943 48.3743 460.884 47.9805 461.977 47.9805C462.602 47.9805 463.182 48.1139 463.716 48.3809C464.249 48.6478 464.692 49.0612 465.044 49.6211C465.395 50.1745 465.571 50.8223 465.571 51.5645V58H463.276V52.1406C463.276 51.5221 463.091 51.0371 462.719 50.6855C462.355 50.321 461.893 50.1387 461.333 50.1387C460.486 50.1387 459.774 50.5195 459.194 51.2812V58H456.889Z" fill="black"/>
<path d="M236.054 94.501C236.054 34.001 295.083 34.001 351.27 34.001" stroke="black" stroke-width="3"/>
<path d="M618.773 95C623.273 34 541.59 34 503.557 34" stroke="black" stroke-width="3"/>
<path d="M376.654 388.242V385.996H388.207V388.242H383.646V400H381.215V388.242H376.654ZM389.857 386.66C389.857 386.217 390.004 385.85 390.297 385.557C390.59 385.264 390.951 385.117 391.381 385.117C391.83 385.117 392.201 385.264 392.494 385.557C392.794 385.843 392.943 386.211 392.943 386.66C392.943 387.096 392.794 387.458 392.494 387.744C392.201 388.024 391.83 388.164 391.381 388.164C390.945 388.164 390.58 388.024 390.287 387.744C390.001 387.458 389.857 387.096 389.857 386.66ZM390.258 400V390.303H392.562V400H390.258ZM395.316 400V390.303H397.582V391.162C398.298 390.374 399.216 389.98 400.336 389.98C400.902 389.98 401.426 390.098 401.908 390.332C402.39 390.566 402.787 390.908 403.1 391.357C403.959 390.439 405.027 389.98 406.303 389.98C406.928 389.98 407.501 390.114 408.021 390.381C408.542 390.648 408.972 391.058 409.311 391.611C409.649 392.158 409.818 392.809 409.818 393.564V400H407.523V394.141C407.523 393.516 407.364 393.027 407.045 392.676C406.726 392.318 406.296 392.139 405.756 392.139C404.949 392.139 404.262 392.5 403.695 393.223C403.715 393.34 403.725 393.454 403.725 393.564V400H401.439V394.141C401.439 393.516 401.283 393.027 400.971 392.676C400.658 392.318 400.235 392.139 399.701 392.139C398.894 392.139 398.201 392.52 397.621 393.281V400H395.316ZM411.732 395.098C411.732 394.349 411.859 393.656 412.113 393.018C412.367 392.373 412.715 391.829 413.158 391.387C414.128 390.449 415.271 389.98 416.586 389.98C418.083 389.98 419.255 390.459 420.102 391.416C420.961 392.367 421.391 393.613 421.391 395.156C421.391 395.469 421.378 395.716 421.352 395.898H414.145C414.184 396.608 414.47 397.188 415.004 397.637C415.544 398.079 416.179 398.301 416.908 398.301C417.644 398.301 418.308 398.2 418.9 397.998C419.506 397.79 420.134 397.451 420.785 396.982V399.082C419.646 399.896 418.308 400.303 416.771 400.303C415.84 400.303 415.001 400.111 414.252 399.727C413.503 399.336 412.895 398.74 412.426 397.939C411.964 397.139 411.732 396.191 411.732 395.098ZM414.213 394.18H418.988C418.969 393.542 418.747 393.018 418.324 392.607C417.908 392.191 417.328 391.982 416.586 391.982C415.922 391.982 415.368 392.201 414.926 392.637C414.49 393.073 414.252 393.587 414.213 394.18Z" fill="black"/>
<defs>
<linearGradient id="paint0_linear" x1="235" y1="401" x2="468" y2="401" gradientUnits="userSpaceOnUse">
<stop stop-color="#E56076"/>
<stop offset="0.879168" stop-color="#E56177"/>
</linearGradient>
<linearGradient id="paint1_linear" x1="10.0862" y1="248.5" x2="798.999" y2="253.097" gradientUnits="userSpaceOnUse">
<stop stop-color="#4D3EF6"/>
<stop offset="0.92558" stop-color="#4D3EF6"/>
<stop offset="1" stop-color="#4D3EF6"/>
</linearGradient>
</defs>
</svg>
